<?xml version="1.0" encoding="utf-8"?>
<!-- Generator: Adobe Illustrator 26.0.3, SVG Export Plug-In . SVG Version: 6.00 Build 0)  -->
<svg version="1.0" id="Layer_1" xmlns="http://www.w3.org/2000/svg" xmlns:xlink="http://www.w3.org/1999/xlink" x="0px" y="0px"
	 viewBox="0 0 1186.8 928.2" style="enable-background:new 0 0 1186.8 928.2;" xml:space="preserve">
<style type="text/css">
	.st0{fill:#124734;}
	.st1{fill:#AA955D;}
	.st2{fill:#F8DF8D;}
</style>
<path class="st0" d="M666,795.2h18v2.7h-7.5v19.5h-3v-19.5h-7.5L666,795.2z"/>
<path class="st0" d="M705.1,817.4v-13.1c0-0.7,0.1-3.5,0.1-5.6h-0.1l-6.3,18.6h-3l-6.2-18.6h-0.1c0,2,0.1,4.8,0.1,5.5v13.1h-2.9
	v-22.2h4.3l6.4,18.8h0.1l6.3-18.8h4.2v22.2L705.1,817.4L705.1,817.4z"/>
<path class="st0" d="M942,305.6c-26.1-33.9-72.3-37.8-104.9-37.8H720.3c4.4-18.8,11.4-48.6,13-56.5c4.9-25.1-0.6-49-15.7-67.3
	c-20.3-24.6-54.2-36.6-103.6-36.6l-160.6-0.2c-85.9,0-134.9,36.7-159,118.9l-0.1,0.5c-0.1,0.4-0.2,0.7-60.1,232.2
	c-10.9,40.7-7.2,72.4,11.2,96.6c25.6,33.4,69.3,37.2,99.9,37.2l118.2,0.1c-16,51.6-36.7,118.5-38.4,124
	c-4.8,7.2-70.2,104.1-70.2,104.1l282.4,0.1c0,0,27.6-89.1,37.2-119.9c26.7,0.1,67.3,0.2,67.3,0.2c90,0,136.8-34.5,161.6-119.1
	l0.2-0.7L952,401.8C957,383.1,968.4,339.9,942,305.6z"/>
<path class="st1" d="M553.1,319.4c0,0,10,27,12.3,33.4c-1.6,5.6-14.5,49.2-14.5,49.2h181.5c12.1,0,14.3,2.2,14.3,2.2
	c0.4,0.9,0.6,1.9,0.5,2.9c0,3.8-1.3,11.6-6,27c0,0-32.2,110.7-32.2,111c-0.4,1-1.6,4.3-1.6,4.3c-6,15.7-6.7,17.3-21.5,17.3H507.5
	c0,0-50.1,161.6-51.2,165.1c-1.9,2.9-37.1,55-37.1,55l192.8,0.1c0,0,32.4-104.5,37.2-120c15.6,0,92.7,0.2,92.7,0.2
	c74.5,0,108.2-24.7,128.7-94.5L919,392.9c6.2-23.7,10-48-4.2-66.3c-12.9-16.7-37.5-24.4-77.8-24.4l-272.1-0.1h-18.4L553.1,319.4z"/>
<path class="st1" d="M327.2,235.8c-0.1,0.4-60,231.7-60,231.7v-0.1c-8.2,30.5-6.5,51.8,5.3,67.3c12.7,16.5,35.1,23.8,72.8,23.8
	l161.9,0.1c71.3,0,109.1-25.7,126.8-85.9l16.4-55.2H476.5l-1.7,11c-0.1,0.3-4.8,29.5-24.1,29.5c-4.7,0-6.1-1-6.1-1
	c-0.4-1-0.1-4.6,1.1-10.6c1.5-7.3,25-101.9,44.7-180.6l0.4-1.4c4.6-19.1,17.3-23.7,24.6-22c1.4,0.3,2.7,1.1,3.6,2.2
	c-1.2,5.1-9.4,41-9.4,41l16.1,0.1l155.3,0.1l2.4-9.9c0.6-2.5,14.4-60.5,16.5-71.1c3-15,0-28.5-8.6-39
	c-13.3-16.2-38.6-24.1-77.1-24.1l-160.7-0.1C382.5,141.5,347.1,167.9,327.2,235.8z"/>
<path class="st2" d="M578.7,353l0.2-0.7l-13.8-37.4l272.1,0.1c79.7,0,80.7,31.8,69.5,74.6c0,0.1-48.3,179.5-48.3,179.5
	c-18.7,63.6-47.1,85.3-116.4,85.3L639.8,654l-37.2,120L443.4,774l24.6-36.5l48.9-157.9h168.8c25.7,0,27.4-10.5,35.3-30.4
	c0,0,22.9-80.1,32.4-111.3c10.6-35,11.1-48.8-21.1-48.8H568.1L578.7,353z"/>
<path class="st2" d="M279.7,470.7c0-0.1,59.8-231.3,59.8-231.3c18.5-62.9,48.3-85.1,113.8-85.1l160.7,0.1c58,0,78.6,19.3,73.1,47.8
	c-2.1,10.4-16.3,70.5-16.3,70.5l-145.2-0.1c0,0,5.1-22,6.2-26.9c1.3-6.4-4.8-14.1-13.6-16.1c-13.7-3.1-33.6,4.8-40.1,31.8
	c0,0-42.8,171.5-45.1,182.2c-2.2,10.6-5,27,17.6,27c30.9,0,36.8-40.4,36.8-40.4h145.7L621.7,469c-15.9,54.5-49,76.8-114.5,76.8
	l-161.9-0.2C287,545.6,264.5,527.3,279.7,470.7z"/>
</svg>
