<?xml version="1.0" encoding="utf-8"?>
<!-- Generator: Adobe Illustrator 25.0.1, SVG Export Plug-In . SVG Version: 6.00 Build 0)  -->
<svg version="1.1" id="katman_1" xmlns="http://www.w3.org/2000/svg" xmlns:xlink="http://www.w3.org/1999/xlink" x="0px" y="0px"
	 viewBox="0 0 560 400" style="enable-background:new 0 0 560 400;" xml:space="preserve">
<style type="text/css">
	.st0{fill:#00235D;}
	.st1{fill:#CC0033;}
	.st2{fill:#FFFFFF;}
	.st3{fill:#007A33;}
</style>
<g transform="matrix(5.15888 0 0 -5.15888 -143.54 2109.5)">
	<path class="st0" d="M70.9,397.7c-0.2,0-0.3,0-0.5,0c-0.1,0-0.3,0-0.4,0c-0.2,0-0.4-0.1-0.6-0.2c-0.3-0.1-0.4-0.2-0.6-0.1l0,0l0,0
		c-0.2,0.1-0.4,0.1-0.6,0.1c-0.3,0-0.5,0-0.8-0.1c0,0-0.2-0.1-0.2-0.1l-0.1,0c-0.2-0.1-0.3-0.2-0.4-0.3l0,0l0,0
		c-0.1-0.2-0.2-0.4-0.3-0.7c0-0.2-0.1-0.4-0.1-0.6c0,0,0-0.6,0-0.6c0,0,0-0.2,0-0.2s0-0.3,0-0.4c-0.1-0.2-0.3-0.3-0.6-0.4
		c0,0,0,0,0,0l-0.2,0h0l-0.4,0c-0.3,0-0.5,0-0.8-0.1c0,0-0.3-0.1-0.3-0.1l0,0l-0.1-0.1c-0.2-0.2-0.4-0.3-0.7-0.4
		c0,0-0.2-0.1-0.2-0.1l-0.1,0c0,0-0.6-0.1-0.6-0.1l-0.3,0l0,0l-0.5-0.1c-0.2-0.1-0.4-0.1-0.7-0.3c-0.2-0.1-0.3-0.2-0.4-0.3
		c-0.1,0-0.2-0.1-0.3-0.1c-0.1,0-0.2,0-0.3,0.1c-0.2,0.1-0.3,0.4-0.3,0.8c-0.1,0.3-0.2,0.7-0.4,1c0,0-0.1,0.2-0.1,0.2l0,0l0,0l0,0
		l0,0c-0.4,0.4-0.8,0.5-1.4,0.5c-0.1,0-0.3,0-0.5-0.1l-0.1,0l0-0.1l-0.2-0.4c-0.3-0.4-0.8-0.6-1.3-0.8c-0.6-0.2-1.2-0.5-1.6-1.3
		c0,0,0-0.1,0-0.1c-0.1-0.2-0.1-0.4-0.1-0.6c0-0.3,0.1-0.7,0.2-1c0,0,0.1-0.4,0.1-0.5c-0.1-0.3-0.3-0.6-0.3-1c0,0,0-0.1,0-0.1
		c0-0.4,0.3-0.8,0.7-1l0,0l0,0c0.1,0,0.2,0,0.2-0.1l0,0l0,0l0.3-0.1c0.4-0.1,0.8,0,1.1,0.1c0,0,0.4,0.1,0.4,0.1
		c0.1,0,0.3,0.1,0.4,0.1c-0.1-0.1-0.2-0.2-0.3-0.2c-0.4-0.4-0.9-0.5-1.4-0.5h-0.3h-0.6c0,0,0,0,0,0s-0.3-0.1-0.3-0.1
		c-0.2-0.1-0.4-0.2-0.6-0.3c0,0-0.1,0-0.1,0l-0.1,0l-0.1-0.1l-0.1-0.1l0-0.3c0,0,0-0.2,0-0.2v0c0-0.1,0.1-0.2,0.1-0.3l0-0.2l0,0
		c0,0,0.1-0.1,0.1-0.1c0.4-0.7,0.9-1.3,1.4-1.9l0,0l0,0c0,0,0-0.1,0-0.1c-0.1-0.5-0.1-1-0.1-1.5c0-0.8,0.1-1.5,0.1-2.1
		c-0.1-0.1-0.4-0.4-0.4-0.4c0,0-1.6-1.7-1.6-1.7c-0.1-0.1-0.1-0.3-0.1-0.4c0-0.1,0-0.1,0-0.2c0,0,0-0.1,0-0.1c-1.2-2-1.9-4.4-2-7
		l0,0l0,0c0-0.1,0-0.1,0-0.1c0-0.5-0.4-0.8-0.8-1.2c-0.4-0.3-0.9-0.7-0.9-1.4c0,0,0-0.1,0-0.1c-1.2-0.8-2.3-2.1-2.9-3.6
		c-0.1,0-0.2-0.1-0.2-0.1c-0.9-0.3-2.1-0.6-2.3-1.8c0-0.3-0.1-0.6-0.1-0.8c0-0.8,0.2-1.4,0.6-1.8c0.4-4.1,1.2-8.7,5.4-11.3
		c0-0.1,1.2-2.6,1.2-2.6c1-1.9,2.9-1.9,4.7-1.9c0.4,0,0.8,0,1.2,0c0.9-0.5,2-0.9,3.2-1c0.8-0.1,1.4,0.1,2.1,0.3
		c0.6,0.2,1.1,0.4,1.7,0.3l0,0l0,0c0.2,0.1,0.2,0.3,0.2,0.4c0,0,0,0.1,0,0.1c0,0,0,0.1,0,0.1c0,0.1,0,0.2,0.1,0.2
		c0.5,0,1,0.2,1.4,0.5c0.4,0.3,0.8,0.5,1.3,0.4l0.3-0.1l-0.1,0.2c-0.1,0.1-0.1,0.3-0.1,0.4c0,0.3,0.2,0.5,0.5,0.6
		c0.3,0.2,0.6,0.4,0.8,0.7c0.1,0.1,0.3,0.1,0.4,0.1c0.2,0,0.5,0.1,0.7,0.2l0.1,0v0.1c0,0.6-0.3,1-0.7,1.3c0,1.2-0.5,2.2-1.5,3
		c-1.3,1.3-3.2,1.1-4.6,0.7c-0.1,0.1-0.4,0.4-0.4,0.4c-0.7,0.6-1.3,1.1-2.2,1.4c-0.4,1.4-1.1,2.4-2.1,3.2c0.4,0.4,0.8,0.7,1.4,0.9
		c0.3,0.1,0.6,0.3,0.9,0.5c5.7-2.8,13.3-1.8,18-0.2c0.3-0.1,0.4-0.5,0.4-0.7c0-0.2,0-0.4-0.1-0.5c-0.4-0.9-1.2-1-2-1.2
		c-0.5-0.1-1.1-0.2-1.6-0.5l0,0l0,0c-0.5-0.6-1.2-0.7-2-0.9c-0.7-0.2-1.5-0.3-2.1-0.9c-0.4-0.5-0.5-1.1-0.6-1.7c0-0.3-0.1-0.7-0.2-1
		c-0.1-0.2-0.1-0.4-0.1-0.6c0-0.1,0-0.3,0.1-0.3c0.2-0.2,0.6-0.2,1-0.1c0.4,0.1,0.8,0.1,1,0c0.5-0.5,1-0.3,1.4-0.2
		c0.3,0.1,0.7,0.2,1,0.1c0.4-0.3,0.8-0.3,1.2-0.2c0.3,0,0.6,0.1,0.9-0.1c-0.1-0.2-0.1-0.3-0.2-0.5l-0.2-0.3l0,0c0-0.1,0-0.1,0-0.2
		c0-0.4-0.2-0.8-0.3-1.2c-0.2-0.4-0.4-0.8-0.4-1.3c0-0.1,0-0.2,0-0.4l0-0.1l0.1,0c0.2,0,0.4,0.1,0.6,0.1c0.2,0.1,0.4,0.2,0.5,0l0,0
		l0,0c0.5-0.2,0.4-0.5,0.3-1l0-0.2l0,0c0.1-0.2,0.2-0.3,0.3-0.4c0.2-0.1,0.4,0,0.7,0.1c0.2,0.1,0.3,0.1,0.5,0.1
		c0.2-0.3,0.7-0.4,1.1-0.4c0.3,0,0.6-0.1,0.7-0.2c0,0,0.1-0.1,0.1-0.2c0-0.1,0-0.1,0-0.2l0-0.1l0-0.1c0.2-0.3,0.5-0.2,0.7-0.2
		c0.1,0,0.2,0.1,0.3,0c1.6-0.9,3.4-0.4,4.9,0.1c0,0,0.8,0.2,0.8,0.2c2.8-0.5,6,0.5,6.8,3.5c3.9,4.6,6.3,8.6,7.7,12.6l0,0
		c0.2,0.3,0.2,0.7,0.3,1.1c0.1,0.6,0.2,1.1,0.6,1.3c1.5-1,3.6-2.2,5.7-1.2c0.9-0.5,1.3-1.5,1.6-2.2l0,0l0,0c0.1-0.2,0.2-0.4,0.2-0.6
		c0-0.1,0-0.1,0-0.2c-0.1-0.3-0.4-0.4-0.8-0.5c-0.4-0.2-0.8-0.3-1-0.7c-0.3-0.7-0.9-0.8-1.5-1c-0.6-0.2-1.2-0.4-1.6-1
		c-0.6-0.7-0.6-1.5-0.5-2.4c0-0.4,0.1-0.8,0-1.2l0-0.1l0,0c0.4-0.7,1-0.6,1.6-0.5c0.4,0.1,0.8,0.1,1.1,0c0.2-0.2,0.4-0.3,0.7-0.2
		l0.1,0l0,0c0.4,0.4,0.8,0.3,1.4,0l0.5-0.2c0.3-0.1,0.7,0,1,0c0.5,0.1,0.8,0.1,1-0.1l0,0l0,0c0.3-0.2,0.5,0.1,0.7,0.2
		c0.1,0.1,0.1,0.1,0.2,0.2c0.7-0.3,1.6-0.6,2.7-0.4l0,0l0,0c0.6,0.5,1.4,0.5,2.3,0.5c1,0,2.1,0,2.8,1c0.6,0.9,0.7,2.2,0.2,3.3l0,0
		l0,0c-0.8,1.1-1.2,2.4-1.5,3.7c-0.4,1.3-0.7,2.7-1.6,3.8l0,0l0,0c-1.3,0.9-2,2.2-2.8,3.4c-0.8,1.4-1.7,2.9-3.3,3.7
		c-0.5,0.3-1.2,0.2-1.7-0.1c-0.1,0.2-0.3,0.8-0.3,0.8c-0.4,1-0.8,2-1.3,2.9c-0.8,1.5-2,2.5-3.2,3.5c0,0-1,0.8-1,0.9
		c-0.1,0.7-0.6,1.2-1.2,1.8c-0.5,0.6-1,1.1-1,1.7c0,0.3,0.1,0.6,0.5,1l0,0l0,0c0.1,0.3,0.1,0.5,0.1,0.8c0,1.1-0.6,2.2-1.6,3.2l0,0
		l0,0c-0.8,0.4-2.3,1.2-3.4,0.4l0,0l0,0c-0.3-0.3-0.4-0.5-0.4-0.8c0-0.3,0.2-0.7,0.3-0.9c0.2-0.3,0.3-0.5,0.3-0.8
		c0-0.2-0.1-0.4-0.3-0.5c-0.1,0-0.7,0.2-0.7,0.2c-1.8,0.6-3.7,1.3-5.9,1.2c-1.8,1.8-3.5,2.8-5.3,3.2l0,0h0c-1.4,0-2.8,0.5-4.1,0.9
		c-1.7,0.5-3.4,1.1-5.4,0.9c0,0,0,0-0.1,0c0,0.2,0.1,0.5,0.2,0.8c0.1,0.5,0.3,1.1,0.3,1.6c0,0,0,0.1,0,0.1v0c0,0.4-0.1,0.7-0.3,1
		l-0.2,0.2c-0.5,0-1-0.1-1.6-0.4c0,0-0.6-0.3-0.6-0.3l0,0c0,0-0.8-0.5-0.8-0.5c0,0-0.1-0.1-0.1-0.1s0,0-0.1,0
		c-0.3,0.3-0.7,0.4-1.1,0.5c-0.3,0.1-0.5,0.2-0.8,0.3c0.6-0.1,1.3-0.1,1.9,0.2c0.3,0.2,0.6,0.4,0.9,0.6c0,0,0.1,0.1,0.1,0.1l0,0
		c0.1,0.1,0.1,0.3,0.2,0.3l0,0l0,0c0.1,0.1,0.1,0.2,0.1,0.3l0,0.2l0,0.1l-0.4,1l-0.1,0c-0.2,0.1-0.4,0.2-0.5,0.3
		c-0.2,0.2-0.4,0.6-0.6,0.9c-0.1,0.2-0.3,0.5-0.4,0.7C71.3,397.6,71.1,397.7,70.9,397.7L70.9,397.7z M86.9,363.9
		c0.3-0.2,0.7-0.3,1.1-0.3c0.5,0,0.9-0.1,1.1-0.4c-1.3-1.6-1.6-3.7-1.8-5.7c-0.2-1.4-0.4-2.9-0.9-4.1c-1.2-0.2-2.4-0.4-3.4-1.2
		c1.5,1.9,3.3,4.2,3.4,7.1v0l0,0c-0.1,0.6-0.4,1.2-1,1.5c-0.2,0.1-0.5,0.1-0.7,0.2c-0.2,0-0.5,0-0.6,0.1c0,0,0,0,0,0.1
		c0,0,0,0.1,0,0.1C85,362,86,362.9,86.9,363.9L86.9,363.9z"/>
	<path class="st1" d="M76.3,388.8c-0.2,0-0.5,0-0.7,0c0.4-0.6,0.8-1.2,1.1-1.8c0,0,0.5-0.9,0.6-1c0,0,0,0,0.1,0
		c0.9-0.2,1.8-0.3,2.7-0.8l0,0l0,0c0.1-0.1,0.1-0.2,0.1-0.3c0-0.1,0-0.2,0-0.2l0-0.1l0,0l0,0c-0.3-0.4-0.7-0.9-0.9-1.2
		c0,0-0.2-0.2-0.2-0.2l-0.2-0.2l-0.1-0.1c0,0,0,0,0,0c0-0.1-0.1-0.1-0.2-0.1c0,0,0,0,0,0c0,0,0,0,0,0l-0.3-0.2l-0.1,0l0.1,0.1
		l-0.1-0.1l0,0c0,0-0.1,0-0.1,0c0,0,0,0,0-0.1c0-0.1,0.1-2.2,0.1-2.3c0.2-0.7,0.4-1.3,0.5-2c0.1-0.5,0.1-0.9,0.1-1.3
		c0-0.5-0.1-1.1-0.2-1.5c-0.1-0.4-0.3-0.8-0.5-1.2c-0.2-0.4-0.5-0.7-0.8-0.9c-0.6-0.6-1.3-0.9-2-1c0,0,0-0.1,0-0.1
		c0.1-0.5,0.2-1.1,0.2-1.8c0-0.2,0-0.4,0-0.5c0-0.3-0.1-0.7-0.2-1l0-0.1l-0.3,0l-0.1,0l0,0l-0.1,0l-0.1,0c-0.4,0.1-0.7,0.3-1.1,0.5
		l0,0c0,0-0.2,0.1-0.2,0.2l0,0l-0.2,0.1c0,0-0.1,0.1-0.1,0.1l-0.9-1.3c0,0,0,0,0-0.1c0.1-0.3,0-0.7-0.2-1c1.9,0.4,3.6-0.5,4.2-2.3
		c0.7-2.1,0-4.3-2.1-5c-2.1-0.7-4.5,0.4-5.1,2.5c-0.6,1.9,0.2,3.7,2.1,4.5c-0.3,0.1-0.5,0.4-0.6,0.6l-1.6,0.3c0-0.3-0.1-0.7-0.2-1
		c-0.1-0.3-0.3-0.6-0.5-0.9l0,0c0,0-0.1-0.1-0.1-0.1l-0.1-0.1l-0.1,0c-0.2,0.1-0.4,0.2-0.5,0.3c0,0-0.5,0.3-0.5,0.3l-0.5,0.4
		c0,0,0,0,0,0l-0.2,0.3c0,0-0.2,0.2-0.2,0.3l-0.2,0.2c0,0-0.1,0.1-0.1,0.1l0,0c0,0,0,0,0,0c-0.3,0-0.7,0-1.1,0.1
		c-0.3,0.1-0.6,0.1-0.9,0.2c-0.4,0.2-0.7,0.4-1,0.6c-0.7-0.4-1.6-0.6-2.5-0.4c-0.2,0-0.4,0.1-0.6,0.2c-0.3,0.2-0.7,0.4-1,0.6
		c-1,0.9-1.8,2.4-2,4l0,0l0,0c0,0.1,0,0.2,0,0.3c0,0,0,0,0,0c0,0.5-0.2,0.9-0.5,1.3c-0.2,0.4-0.4,0.7-0.5,1.2
		c-0.1,0-0.4,0.1-0.4,0.1l-0.5,0.1c-0.5,0.1-1,0.2-1.4,0.4c-1.2-2.3-1.7-4.9-1.9-7.5c-0.2-1-1.4-0.9-1.4-2c2-3.1,5-5.7,8-7.7
		c1.5-0.5,1.4,1.6,2.5,2c1-0.3-0.1-1.1,0.2-1.6c8.2-3.2,19.7-1.7,24.5,5.7c-0.3,1.2-2,0.4-2.1,1.7c0.9,0.5,1.6-1,2.4-0.8
		c0.1,1.9,1,3.6,1.8,5.1c1.8,2.8,4.6,5.3,7.9,5.6c-0.3,1-1.1,1.7-2.1,1.8c-1.4,3.3-4.5,6.5-7.9,7.6
		C82.1,386.4,79.7,388.8,76.3,388.8L76.3,388.8z M67.2,380.7c-0.1,0-0.3-0.1-0.4-0.1c0,0-0.2,0-0.2-0.1c0,0,0,0,0,0
		c0.2-0.4,0.5-0.8,0.5-1.2c0-0.1,0-0.1,0-0.2l0-0.2l-0.1,0.2c-0.1,0.2-0.1,0.3-0.2,0.5c-0.1,0.2-0.2,0.3-0.4,0.5
		c-0.2,0.2-0.3,0.1-0.6,0.1c0,0-0.1,0-0.2,0c-0.1,0-0.1,0-0.2,0c0,0-0.2-0.1-0.2-0.1L65,380c-0.3-0.2-0.4-0.4-0.5-0.5
		c0-0.1-0.1-0.2-0.1-0.3c0,0,0-0.1,0-0.1c0.5-0.6,0.5-1.2,0.5-1.9v-0.2c0-0.4,0-0.8,0.1-1.3c0.1-0.3,0.3-0.8,0.6-0.9
		c0.1,0.2,0.2,0.4,0.2,0.6l0.1,0.4c0.1,0.2,0.1,0.4,0.3,0.5l0,0l0,0c0,0,0.2,0,0.2,0c0.2-0.1,0.4-0.3,0.6-0.5
		c0.1-0.1,0.2-0.2,0.2-0.3c0,0.1,0,0.4,0,0.4s0,0.6,0,0.6c0,0.2,0.1,0.4,0.2,0.5l0,0c0,0,0.1,0,0.1,0c0.2,0.1,0.4-0.1,0.6-0.3
		c0.1-0.1,0.1-0.1,0.2-0.2c0,0.1,0,0.2,0,0.2c0,0.1,0,0.3,0,0.4c0.1,0.2,0.1,0.4,0.2,0.6l0,0h0c0.1,0,0.3,0,0.4-0.1
		c-0.3,0.5-0.5,1-0.7,1.5c-0.1,0.4-0.3,0.8-0.5,1.2c0,0-0.2,0.3-0.2,0.3c-0.1,0-0.2,0.1-0.3,0.1C67.4,380.7,67.3,380.7,67.2,380.7z
		 M72,369.8c-0.1,0-0.2-0.1-0.2-0.1c0,0-0.8-0.3-0.8-0.3c0,0-0.3-0.1-0.3-0.1l-0.8-0.3l-0.3-0.1c0,0,0,0,0,0c-0.1,0-0.1,0-0.2-0.1
		l1.3-0.4c0.1,0.2,0.3,0.3,0.5,0.4c0.1,0,0.3,0.1,0.4,0L72,369.8z M69,368.8C69,368.8,69,368.8,69,368.8c0-0.1,0-0.2,0-0.2L69,368.8
		z"/>
	<path class="st0" d="M84.2,373.2l2.1-1.9l3.6,3.8c0,0-1.2,1.1-1.5,1.4c0.2,0.2,0.5,0.6,0.5,0.6s-1.6,1.5-2,1.8
		c0.3,0.2,1,0.7,1.1,0.8c0.1,0,0.2,0.1,0.2,0.1c0,0,0.1,0.1,0.1,0.1c0,0.2-0.4,0.6-2.3,2.5c0,0-0.9,0.8-0.9,0.8l-5.4-5.7l2.3-2.1
		c0,0,0.3,0.4,0.5,0.5c0.3-0.3,1.9-1.8,2.2-2.1C84.6,373.5,84.2,373.2,84.2,373.2"/>
	<path class="st2" d="M70.2,396.9c-0.3,0-0.5-0.1-0.8-0.2l0.6-0.8l0-0.1c-0.5,0.2-1,0.7-1.6,0.8c-0.1,0-0.1,0-0.2,0
		c-0.2-0.1-0.4-0.2-0.5-0.3c-0.1-0.1-0.1-0.2-0.2-0.2c-0.3-0.6,0-1.5-0.2-2.1c0-0.1-0.1-0.2-0.1-0.3c0-0.1-0.1-0.2-0.2-0.3
		c0,0-0.1-0.1-0.1-0.1c0,0-0.1-0.1-0.1-0.1c-0.2-0.2-0.5-0.3-0.8-0.3c-0.1,0-0.1,0-0.2,0c-0.1,0-0.2,0-0.4,0c-0.3,0-0.6,0-0.8-0.1
		c-0.1,0-0.2,0-0.4-0.1c-0.3-0.1-0.5-0.2-0.8-0.5c0,0,0,0,0,0l-0.3-0.1l-0.9-0.2l-0.6-0.1l-0.4-0.1c-0.1,0-0.1-0.1-0.2-0.1
		c-0.1-0.1-0.3-0.2-0.5-0.2c-0.1-0.1-0.2-0.1-0.3-0.1c-0.1,0-0.2-0.1-0.2-0.1c0,0-0.1,0-0.1,0c-0.1,0-0.3,0-0.4,0.1l0,0
		c-0.1,0-0.1,0.1-0.2,0.1c0,0-0.1,0.1-0.1,0.1c-0.7,0.6-0.8,2-1.6,2.2c-0.1,0-0.3,0.1-0.5,0c-0.1,0-0.2-0.1-0.3-0.2
		c-0.7-0.4-0.8-1.3-1.2-1.9c-0.3,0.4,0,0.7,0.1,1.1c-1,0-1.1-0.5-1.1-1.1c0-0.8,0.4-1.8-0.1-2.4c0,0-0.1-0.1-0.1-0.1
		c0-0.1,0.1-0.2,0.2-0.3c0.1-0.1,0.3-0.2,0.5-0.1c1,0,2,1.1,2.4,1.9c0,0.1,0,0.2,0.1,0.3c0,0.1,0,0.3,0.1,0.5c0,0.3,0,0.6,0.2,0.7
		c0.1-0.2,0.2-0.5,0.3-0.8c0.1-0.4,0.1-0.9-0.1-1.3c0.3-0.6,0.4-1.2,0.3-1.9c-0.1-1-0.5-2-0.3-3c0.2-0.6,0.7-0.3,1.1-0.1
		c0.2,0.1,0.4,0.2,0.5,0.2l-0.3,0.7c-0.1,0.4,0,0.8,0.1,1.1c0.1,0.3,0.3,0.5,0.6,0.7c-0.3-0.1-0.5,0.2-0.6,0.4
		c0.2,0.2,0.5,0.3,0.7,0.3c0.1,0,0.1,0,0.2,0c0.1,0,0.2,0,0.3,0c0.1,0,0.2,0,0.2,0c0,0,0.1,0,0.1,0c0.2,0,0.3,0,0.4-0.1
		c0.3-0.1,0.5-0.3,0.7-0.6c0.3-0.4,0.6-0.9,1-1.3c0,0,0,0,0,0c0.2,0,0.4-0.1,0.6,0c0.2,0,0.5,0.1,0.6,0.3c0.1,0.1,0.1,0.2,0.2,0.3
		c0.1,0.3,0,0.6,0,1c0,0,0.1,0,0.1,0c0.7,0.2,0.2-0.9,0.8-1.1c0.1,0,0.3-0.1,0.4-0.1c0.1,0,0.3,0,0.4,0c0.1,0,0.2,0.1,0.3,0.3
		c0.1,0.4,0.1,0.8,0.2,1.1c0.1,0.3,0.1,0.5,0.2,0.7c0,0.1,0.1,0.2,0.1,0.3c0.2,0.3,0.3,0.6,0.6,0.9c0,0,0.1,0,0.1,0.1c0,0,0,0,0,0
		c0,0,0.1,0,0.1,0.1c0.1,0,0.1,0.1,0.2,0.1c0.3,0.1,0.5,0.2,0.8,0.2c0.1,0,0.2,0,0.2-0.1c0,0,0.1,0,0.1,0c0-0.1,0-0.1,0-0.1
		c0-0.1-0.1-0.2-0.1-0.3l0,0c0-0.1-0.1-0.2-0.2-0.2c0.1-0.1,0.2-0.1,0.2-0.2c0.1-0.1,0.2-0.1,0.3-0.2c0.5-0.4,0.9-1,1-1.6
		c0,0,0.1,0,0.1,0.1c0.3,0.2,0.7,0.2,1,0.3c-0.1,0.5-0.2,1.1-0.5,1.5c-0.1,0-0.1,0.1-0.1,0.2c-0.5,0.5-0.9,1.1-1.4,1.7
		c-0.4,0.6-0.8,1.1-1.2,1.7c0,0.1-0.1,0.1-0.1,0.2c0,0.1-0.1,0.3-0.1,0.5c0,0.1,0.1,0.3,0.2,0.3c0.2-0.3,0.4-0.5,0.7-0.6
		c0.3-0.2,0.5-0.4,0.8-0.6c0.6-0.4,1.5-0.4,2.2-0.1c0.2,0.1,0.3,0.2,0.5,0.3c0.2,0.2,0.2,0.7,0.1,0.9c-0.4,0.2-0.8,0.6-1.1,0.9
		c-0.3,0.3-0.5,0.7-0.6,1c-0.1,0.1-0.2,0.1-0.3,0.1C70.4,396.9,70.3,396.9,70.2,396.9L70.2,396.9z M75.1,392.5
		c-0.3-0.1-0.7-0.2-1-0.4c-0.2-0.1-0.5-0.2-0.7-0.3c-0.1,0-0.2-0.1-0.3-0.2c-0.2-0.1-0.4-0.3-0.6-0.4c-0.2-0.2-0.4-0.5-0.6-0.7
		c0.3-0.6,0.7-1.3,1.3-1.6c0.1,0,0.1-0.1,0.2-0.1c0.2-0.1,0.4-0.2,0.6-0.2c0.1,0.1,0.1,0.2,0.2,0.3c0.2,0.3,0.4,0.6,0.5,1
		C75,390.7,75.1,391.6,75.1,392.5z M68.4,390.2c0,0-0.1,0-0.1,0c-0.1,0-0.1-0.1-0.2-0.1c0,0-0.1-0.1-0.1-0.1c0,0-0.1-0.1-0.1-0.1
		c-0.4-0.4-0.4-1-0.4-1.6c0-0.2,0-0.3-0.1-0.5c0-0.1,0-0.2,0-0.2l0.1,0l0,0l-0.1,0.4c0,0.1,0,0.1,0.1,0.2c0.2,0.2,0.5,0.4,0.7,0.4
		c0.1,0,0.1,0,0.1,0c0,0,0,0,0.1,0c0,0,0.1-0.1,0.1-0.1c0.3-0.2,0.5-0.6,0.3-1l0.2,0.1l0.4,0.2c0.2,0.2,0.2,0.4,0.3,0.7
		c0,0.2,0,0.4,0,0.5c-0.1,0.3-0.2,0.5-0.4,0.7C69,389.9,68.7,390.1,68.4,390.2z M74.9,388.5c-0.1-0.2-0.3-0.3-0.5-0.4
		c0,0-0.1,0-0.1,0c0.1-0.4,0.3-0.8,0.5-1.2c0.3-0.5,0.5-1,0.7-1.5c0.1,0.1,0.2,0.2,0.4,0.3c0.2,0.2,0.4,0.3,0.7,0.3l-1.4,2.4l0,0
		L74.9,388.5z M71.8,388.2c-0.4,0-0.8,0-1.1-0.2c-0.2-0.1-0.4-0.2-0.6-0.4c0,0,0,0,0,0l0,0l0.2,0c0.2-0.2,0.7-0.4,0.5-0.7
		c-0.2,0.1-0.4,0.2-0.6,0.2c-0.1,0-0.1,0-0.2,0c-0.3,0-0.6,0-0.9-0.1c-0.1,0-0.1,0-0.2,0c0.1,0,0.1,0,0.2,0c0.4,0,0.7-0.2,1-0.5
		c0.1-0.1,0.2-0.3,0.3-0.4v0c0.3,0.1,0.6,0,0.8-0.1c0.6-0.4,1.1-1.3,1.7-1.6c0.1-0.1,0.3-0.3,0-0.4c-0.1,0.1-0.2,0.1-0.3,0.2
		c-0.5-0.1-0.8,0.5-1.1,0.9l0,0.1c-0.2,0.3-0.6,0.4-0.9,0.4c-0.1,0-0.2,0-0.2,0c-0.3,0.1-0.5,0.2-0.6,0.7c-0.2,0.1-0.3,0.2-0.5,0.2
		c-0.1,0-0.1,0-0.2,0c0,0-0.1,0-0.2,0c0,0-0.1,0-0.1,0c-0.3,0-0.6-0.1-0.8-0.1c0,0,0,0-0.1,0c0,0,0.1,0,0.1,0c0.4-0.1,0.7-0.2,1-0.4
		c0.1,0,0.1-0.1,0.2-0.1c0.1-0.1,0.1-0.1,0.2-0.2c0.1-0.1,0.2-0.3,0.3-0.4c0.5-0.7,0.9-1.6,1.3-2.3c0.6-1.2,0.7-2.5,1.2-3.8
		c0.1-0.4,0.3-0.8,0.5-1.1c0-0.1,0.1-0.1,0.1-0.2c0.9-1.2,1.2-2.6,1.6-4c0-0.1,0.1-0.2,0.2-0.2c0.3-0.2,0.7-0.3,1.1-0.2
		c0.6,0.2,1.1,0.5,1.5,1c0.3,0.3,0.5,0.7,0.7,1.1c0.2,0.3,0.3,0.7,0.3,1.1c0,0.2,0,0.4,0,0.6c0,1.2-0.2,2.4-0.9,3.3
		c-0.3,0.4-0.6,0.7-1,1c0,0-0.1,0.1-0.2,0.1c-0.3,0.4-0.9,0.9-1.2,1.3c-0.2,0.3-0.3,0.5-0.2,0.8c0,0,0,0,0,0c0.5-0.1,0.5-0.7,0.7-1
		c-0.1,1.6-0.5,3.4-1.7,4.6c-0.2,0.2-0.5,0.5-0.8,0.6C72.5,388.1,72.1,388.2,71.8,388.2L71.8,388.2z M60.9,388c-0.1,0-0.2,0-0.3,0
		c0,0,0,0-0.1,0c0,0-0.1-0.1-0.2-0.1c-0.4-0.3-0.5-0.8-0.5-1.3c0.1-0.4,0.3-1,0.8-1c0.1,0,0.2,0,0.3,0c0.1,0,0.1,0.1,0.1,0.1
		c0.1,0.2-0.1,0.7,0.1,0.9c0,0,0.1,0.1,0.1,0.1c0.1,0,0.1,0,0.2,0.1c0.1,0.1,0.2,0.1,0.3,0.1c0.1,0,0.2,0,0.2-0.1l-0.4,0.5l-0.1,0.2
		c-0.1,0.1-0.2,0.1-0.4,0.2C61.2,387.9,61.1,387.9,60.9,388L60.9,388z M67.7,387c-0.1,0-0.1,0-0.2,0c-0.1,0-0.1,0-0.2,0l-0.1-0.2
		c-0.3,0-0.6,0.1-0.9,0.1c-0.1,0-0.2,0-0.4,0c-0.2,0-0.4,0-0.5-0.1c0.2,0,0.4,0,0.5,0c0.1,0,0.3,0,0.4-0.1c0.3-0.1,0.6-0.2,0.8-0.5
		c0,0,0.1,0.1,0.1,0.1c0.1,0.1,0.2,0.2,0.3,0.2c0.1,0,0.1,0.1,0.2,0.1c0.3,0.1,0.5,0.2,0.8,0.3c0.1,0,0.1,0,0.1,0c0,0-0.1,0-0.1,0
		C68.3,387,68,387,67.7,387z M56.2,386.9c-0.3,0-0.6,0-0.9,0c-0.3,0-0.7-0.1-1,0l-0.3-0.1l-0.4-0.1c0.2-0.4,0.5-0.8,0.8-1.2
		c0.5-0.6,1.1-1.1,1.7-1.4c0,0,0.1-0.1,0.1-0.1c0.8,0.6,1.1,1.7,0.9,2.7C56.8,386.8,56.5,386.9,56.2,386.9z M65.4,386.8
		c-0.1,0-0.2,0-0.3-0.1C65.2,386.8,65.3,386.8,65.4,386.8L65.4,386.8z M65.1,386.8c-0.1,0-0.2-0.1-0.3-0.1c-0.3-0.1-0.6-0.2-0.9-0.3
		c-0.2-0.1-0.3-0.2-0.5-0.3c-0.2-0.1-0.4-0.2-0.6-0.4c-0.1-0.1-0.3-0.2-0.4-0.3c-0.1-0.1-0.2-0.1-0.2-0.2l-0.1,0.1c0,0,0,0,0,0
		c-0.1,0-0.2,0-0.4-0.1c-0.1,0-0.2-0.1-0.3-0.1c0,0-0.1,0-0.2-0.1c-0.4-0.2-0.7-0.4-0.9-0.7c-0.1-0.1-0.2-0.3-0.3-0.4
		c0,0.3,0.1,0.6,0.2,0.8c0.1,0.1,0.1,0.2,0.1,0.3c-0.1,0-0.2,0-0.2,0c-0.2,0-0.3-0.1-0.5,0c-0.1-0.1-0.2-0.1-0.3-0.2
		c-0.5-0.3-1.1-0.7-1.4-1.3c-0.5-0.9-0.8-2.2-0.8-3.4c0-0.8,0.2-1.5,0.6-2.1c0-0.1,0.1-0.1,0.1-0.2c0.5,0.5,0.4,1.2,0.9,1.7
		c0.2-0.1,0.2-0.3,0.2-0.5c-0.4-0.6-0.7-1.3-1-2c-0.3-0.9-0.5-1.9-0.5-2.8c0-0.9,0.2-1.7,0.7-2.5c0,0,0-0.1,0.1-0.1
		c0.4-0.7,1-1.3,1.7-1.7c0.7-0.4,1.4-0.5,2.2-0.4c-0.9,1.1-1.2,2.5-0.7,3.9c0.4,0.6,0.5,1.2,0.5,1.8c0,1.3-0.7,2.7-0.7,4.1
		c0.1,0.5,0.1,0.9,0.1,1.4c0,1.1-0.1,2.1,0.3,3c0,0.1,0.1,0.1,0.1,0.2c0.1,0.1,0.2,0.2,0.2,0.3c0.1,0.1,0.2,0.2,0.3,0.2
		c0.1,0,0.1,0.1,0.2,0.1c-0.1,0-0.1,0-0.2,0c-0.1,0-0.2,0-0.4-0.1c-0.1,0-0.2-0.1-0.3-0.2c0,0-0.1-0.1-0.1-0.1c0,0,0,0,0,0
		c-0.3-0.2-0.4-0.6-0.4-1c-0.2-0.1-0.3-0.2-0.4-0.4c-0.3-0.3-0.4-0.7-0.6-1.1c-0.2-0.6-0.3-1.3-0.7-1.7l-0.1,0.1
		c0.5,0.7-0.1,1.8,0.5,2.4c0,0,0.1,0,0.1,0.1c0.3,0.2,0.5,0.5,0.6,0.7c0.3,0.4,0.5,0.8,0.8,1.2c0,0,0.1,0.1,0.1,0.1c0,0,0,0,0,0
		c0.1,0.1,0.2,0.2,0.3,0.2c0.1,0.1,0.2,0.1,0.3,0.1c0.1,0,0.3,0,0.4,0c0.2,0,0.4,0,0.6-0.1c0,0,0,0,0,0c0.1,0.3,0.3,0.5,0.5,0.7
		c0.1,0.2,0.3,0.3,0.5,0.4c0.3,0.2,0.6,0.4,0.9,0.5C64.9,386.7,65,386.7,65.1,386.8L65.1,386.8z M65.7,386.1c-0.1,0-0.3,0-0.4,0
		c-0.1,0-0.2,0-0.3-0.1c-0.3-0.1-0.6-0.3-0.8-0.6l0,0c0.3,0.1,0.6,0.2,0.9,0.3c0.1,0,0.2,0.1,0.3,0.1c0.3,0.1,0.6,0.2,0.8,0.2
		c0.1,0,0.1,0,0.1,0c-0.1,0-0.1,0-0.2,0C66,386.1,65.9,386.1,65.7,386.1z M98.1,386c-0.3,0-0.6-0.1-0.8-0.3
		c-0.2-0.5,0.1-0.9,0.3-1.3c0.3-0.3,0.9-0.2,1.2-0.2c-0.2-0.5-1-0.9-0.6-1.6c0.7-0.5,1.5-0.8,2.3-1.1c0.6,0.8,0.8,2,0.3,2.9
		c-0.4,0.8-1.2,1.3-1.9,1.5C98.8,385.9,98.4,386,98.1,386L98.1,386z M67.5,385.5c-0.3,0-0.5-0.2-0.6-0.5c0,0-0.1,0-0.1,0
		c-0.3-0.1-0.3,0.5-0.5,0.5c0,0,0,0,0,0c-0.1-0.5-0.4-0.9-0.5-1.5c0-0.1,0-0.2,0-0.3c0-0.1,0.1-0.1,0.1-0.2c0.3-0.2,0.6-0.4,1-0.5
		c0.1,0,0.3,0,0.4,0c0.3,0,0.6,0,0.8,0.1c0,0,0,0,0,0c0.1,0,0.2,0.1,0.3,0.1c0.1,0,0.1,0.1,0.2,0.1c0.3,0.2,0.6,0.4,0.6,0.8
		c0,0.1,0,0.1,0,0.1c0,0.2-0.1,0.4-0.2,0.6c-0.1,0.2-0.2,0.3-0.4,0.3c-0.2,0.1-0.4,0.2-0.6,0.2c-0.1,0-0.1,0-0.2,0
		C67.8,385.6,67.7,385.6,67.5,385.5z M76.3,385.4c-0.3,0-0.3-0.2-0.3-0.4c0-0.1,0-0.2,0-0.3c0.1-0.8,0.1-1.7,0.7-2.2
		c0,0,0.1-0.1,0.1-0.1c0.4,0.2,0.9,0.5,1.3,0.8c0.6,0.4,1.1,1,1.5,1.5c-0.6,0.3-1.3,0.4-2,0.4C77.1,385.3,76.7,385.4,76.3,385.4z
		 M64.5,384.8c-0.1,0-0.1,0-0.2,0c0,0,0,0,0,0l0.1-0.4c-0.2-0.2-0.3-0.2-0.5-0.2c-0.2,0-0.5,0.1-0.7,0.1c-0.1,0-0.3,0-0.4,0
		c0,0-0.1-0.1-0.1-0.1c-0.1-0.1-0.2-0.1-0.3-0.2c-0.1-0.1-0.2-0.3-0.3-0.4c-0.1-0.2-0.1-0.4-0.2-0.6c0-0.1,0-0.1,0-0.2
		c0-0.2,0.1-0.4,0.2-0.6c0.1-0.1,0.2-0.2,0.4-0.3l0,0c0.1,0,0.3-0.1,0.4-0.1c0.1,0,0.3,0,0.4,0c0.2,0,0.3,0,0.5,0.1
		c0.2,0.1,0.4,0.2,0.6,0.3c0.2,0.1,0.3,0.2,0.5,0.3c0.2,0.1,0.3,0.3,0.4,0.4c0.2,0.2,0.3,0.5,0.3,0.7c0,0,0,0.1,0,0.1
		c0,0,0,0.1-0.1,0.1C65.1,384.2,64.9,384.8,64.5,384.8z M56.6,383.7c-0.1-0.1-0.3-0.2-0.4-0.3c-0.2-0.1-0.5-0.1-0.7-0.1
		c0-0.6-0.1-1.1-0.1-1.6c0-0.3,0-0.5,0-0.8c-0.1-0.4,0.1-0.6,0.4-0.7c0.3-0.1,0.6-0.2,0.7-0.4c0.1,0.8,0,1.7,0,2.6
		C56.5,382.8,56.5,383.3,56.6,383.7z M69.9,383.6C69.9,383.5,69.8,383.5,69.9,383.6c-0.1-0.1-0.2-0.2-0.2-0.2
		c-0.1-0.3,0.2-0.6,0.2-0.8c0,0,0,0,0,0c0,0.1,0.1,0.1,0.1,0.2c0.1,0.2,0,0.6,0,0.8L69.9,383.6z M92.8,383.2c-0.4,0-0.7,0-1.1-0.1
		c0.2-0.8,0.8-1.4,1.2-2.1c0.9-1.7,3.5-2.1,3.7-4.3c2.7-2.7,3.6-6.2,4.5-9.6c0.5-0.1,0.9-0.5,1.2-0.9c0.3-0.9,0.1-1.9-0.2-2.7
		c1.2-1.3,2.6-2,4.2-2.2c0.7,0,1.3,0.5,1.8,1c0.6,0.9,0.6,2.2,1.1,3.1l0.1-0.2c0.5-1.3-0.2-2.6-0.5-3.8c1.3-1.2,1.9-2.6,2.4-4.2
		c0.6-0.1,1.4-0.4,2.1-0.1c0.7,0.3,1.4-0.1,1.8-0.7c-0.5-0.4-0.9,0.4-1.5,0.2c-1-0.3-2.1,0.4-3.3,0c-1.6-0.5-3-1.5-4.4-2.5
		c-0.3-0.6-0.8-1.2-0.5-2c0.5,0.2,1.2,0.3,1.5-0.3v1.5c0.6,2.3,3.3,2.8,5.1,2.4l-0.3-0.3c-1.8,0.4-5-1-4.3-3.3
		c0.3-0.6,0.7,0.1,1.1-0.3c0.3-0.1,0.6-0.4,0.6-0.7c0.1-0.4,0.5-0.6,0.8-0.6c1.7,1.7,1.7,6.7,5.6,4.7l-0.2-0.2
		c-1.8,0.8-4.4-1.1-3.7-3.2c0.3-0.5,0.8,0,1.3-0.1c0.3-0.2,0.7-0.6,0.6-1c0.3-0.6,1.1-0.5,1.7-0.4c1.1,0.9,2.9,0.2,4.1,1.2
		c0.7,0.9,0.5,2.1,0.3,3.2c-1.9,2.1-1.2,5.3-3.1,7.4c-2,1.3-2.6,3.5-4.1,5.2c-0.7,0.5-1.5,1-2.5,0.8c-0.4-0.1-0.5-0.8-1-0.6
		c-0.9,1.9-1,4.2-2.2,5.9c-1,2.5-4.6,2.1-5,5c-1.2,2.1-3.5,3.5-5.6,4.2C95,382.8,93.9,383.1,92.8,383.2L92.8,383.2z M69.3,383.1
		c-0.2,0-0.3-0.1-0.5-0.1c-0.1,0-0.1-0.1-0.2-0.1c-0.5-0.5,0.6-1.6,0.3-2.3l0.1,0c0.1,0.1,0.1,0.2,0.1,0.3c0,0.1,0.1,0.2,0.1,0.3
		C69.5,381.9,69.6,382.6,69.3,383.1z M66.1,382.9c-0.1,0-0.2-0.1-0.2-0.2c0-0.1,0-0.2,0.1-0.3c0.1-0.2,0.3-0.4,0.5-0.5
		c0,0,0,0,0.1,0c0.1,0.2,0.1,0.5,0.2,0.8L66.1,382.9L66.1,382.9z M67.9,382.7l-0.4-0.1l-0.3,0c0.1-0.3,0.3-0.5,0.4-0.8
		c0,0,0,0,0,0.1C67.8,382.1,67.9,382.4,67.9,382.7z M65.4,382.4c-0.1-0.1-0.2-0.1-0.4-0.2c-0.2-0.1-0.4-0.2-0.5-0.4
		c0.3-0.2,0.4-0.7,0.7-0.6L65.4,382.4z M85.1,382.4c-0.3-0.3-4.4-4.7-4.7-5c0.3-0.2,1.3-1.2,1.6-1.5c0.1,0.2,0.5,0.5,0.5,0.5
		l2.9-2.7c0,0-0.3-0.4-0.5-0.5c0.3-0.2,1.1-1,1.3-1.2c0.3,0.3,2.6,2.8,2.9,3.1c-0.3,0.3-1.5,1.4-1.5,1.4s0.4,0.4,0.5,0.6
		c-0.3,0.3-2,1.9-2,1.9s1.2,0.9,1.4,1.1c-0.3,0.4-1.2,1.2-2,2C85.6,382,85.3,382.3,85.1,382.4z M63.5,381.6c-0.1,0-0.1,0-0.2,0
		c-0.1,0-0.3-0.1-0.3-0.1c-0.4-0.3,0-1,0.4-1.6c0.1-0.2,0.3-0.3,0.3-0.5l0,0.5l0.1,1.6L63.5,381.6L63.5,381.6z M61.8,381.6
		c0-0.4,0.3-0.8,0.5-1v0l0.1,0.4l0,0.2c0,0.1-0.1,0.1-0.1,0.2c-0.1,0.1-0.1,0.1-0.2,0.1C62,381.5,61.9,381.5,61.8,381.6z
		 M55.6,379.8c-0.3-0.3-0.7-0.5-1-0.9c-0.5-0.5-1-1-1.4-1.5c0.6-0.2,1.2-0.3,1.9-0.4c0.5,0,1,0,1.5,0.2c0,0,0.1,0,0.1,0
		c-0.1,0.8-0.1,1.7-0.7,2.3C55.9,379.6,55.7,379.7,55.6,379.8z M69.7,379.4c0.2-0.5,0.3-1.1,0.3-1.7c0-0.3,0.1-0.6,0.1-0.9
		c0,0,0.1,0,0.1,0c0.1,0,0.1,0,0.2,0c0.3,0.1,0.7,0.2,0.7,0.5C70.9,378.2,70.4,379.2,69.7,379.4C69.7,379.4,69.7,379.4,69.7,379.4z
		 M71.2,378.2C71.2,378.2,71.2,378.2,71.2,378.2c0.3-0.2,0.1-1,0.5-0.9c0,0,0.1,0,0.2,0.1c0,0.2-0.2,0.4-0.4,0.6
		C71.4,378.1,71.3,378.2,71.2,378.2L71.2,378.2z M68.9,377.2C68.9,377.2,68.9,377.2,68.9,377.2c-0.1-0.5,0-0.9,0-1.2
		c0.1,0,0.1,0.1,0.2,0.2c0.1,0.1,0.2,0.2,0.3,0.3C69.4,376.7,69.3,377.2,68.9,377.2z M64.1,377.1c-0.1-0.1-0.1-0.3-0.2-0.4
		c-0.1-0.3-0.1-0.6-0.1-0.9c0-0.4,0.1-0.8,0.1-1.2c0.1,0,0.1,0,0.2,0c0.1,0,0.2,0,0.3,0c0.1,0,0.3,0,0.4,0.1c0,0,0,0,0.1,0
		c0,0.5-0.2,1-0.5,1.5C64.3,376.5,64.2,376.8,64.1,377.1z M71.6,376.6L71.6,376.6c0,0-0.1,0-0.1,0c0,0-0.1,0-0.1,0
		c-0.3,0-0.5-0.1-0.8-0.2c-0.1,0-0.1,0-0.2-0.1c-0.1-0.1-0.2-0.1-0.3-0.2c-0.2-0.1-0.5-0.3-0.7-0.5c-0.1-0.1-0.2-0.2-0.3-0.2
		c-0.2-0.2-0.5-0.4-0.7-0.5c-0.1-0.1-0.2-0.1-0.3-0.2c-0.3-0.2-0.6-0.4-0.8-0.5c-0.1-0.1-0.2-0.1-0.3-0.2c-0.1,0-0.1,0-0.2,0
		c-0.2,0-0.4,0-0.7,0c-0.2,0-0.3,0-0.5,0c-0.1,0-0.2,0-0.4,0c-0.1,0-0.2,0-0.4,0c-0.1,0-0.2,0-0.3,0c-0.1,0-0.1,0-0.2,0
		c-0.4-0.1-0.7-0.1-1.1-0.3c-0.1,0-0.3-0.1-0.4-0.2l-0.3-0.2l-0.8-0.4c-0.1-0.6,0-1.1,0.2-1.6c0.4-0.8,0.9-1.5,1.6-1.9
		c0.3-0.2,0.6-0.3,0.9-0.4c0.1,0,0.2-0.1,0.3-0.1c0.3,0,0.5,0,0.8,0c0.1,0,0.1,0,0.2,0c0.1,0,0.2,0,0.3,0.1c0.1,0,0.2,0.1,0.3,0.1
		c0.1,0,0.2,0.1,0.3,0.1c0.2,0.1,0.3,0.1,0.5,0.2c0.2,0.1,0.4,0.2,0.6,0.3c0.2,0.1,0.3,0.2,0.5,0.3c0.3,0.2,0.6,0.4,0.8,0.7
		c0.1,0.1,0.2,0.2,0.3,0.2c0.2,0.2,0.4,0.4,0.6,0.6l0.1,0l0,0c0-0.1,0-0.1,0-0.2c0-0.3-0.4-0.7-0.4-0.9c0.2,0,0.4,0.1,0.6,0.2
		c0.1,0,0.2,0.1,0.3,0.1c0.3,0.1,0.5,0.2,0.8,0.3c0.1,0.1,0.2,0.1,0.3,0.2c0.1,0,0.1,0.1,0.2,0.1c0.3,0.1,0.5,0.3,0.7,0.5
		c0,0,0.1,0.1,0.1,0.1c0.1,0,0.1,0.1,0.1,0.1c0.1,0,0.1,0.1,0.2,0.2c0.3,0.2,0.5,0.4,0.7,0.6c0.1,0.1,0.1,0.1,0.2,0.2
		c-0.1,0.2-0.1,0.4-0.2,0.6c0,0.2,0,0.5-0.2,0.6c0,0.1-0.1,0.1-0.2,0.2c0,0-0.1-0.1-0.1-0.1c-0.2-0.2-0.5-0.3-0.8-0.4
		c-0.1,0-0.1,0-0.2,0c0,0-0.1,0-0.1,0c0,0-0.1,0-0.1,0c-0.3,0-0.6,0-0.8,0c-0.1,0-0.1,0-0.2,0c-0.1,0-0.3,0-0.4,0
		c-0.3,0-0.6,0-0.8-0.1c-0.1,0-0.2,0-0.4-0.1c-0.1,0-0.2-0.1-0.3-0.1c-0.2-0.2-0.3-0.4-0.4-0.5c-0.1-0.1-0.2-0.2-0.2-0.3
		c-0.2-0.3-0.5-0.6-0.7-0.9c-0.1-0.2-0.3-0.3-0.4-0.5c-0.2-0.2-0.4-0.3-0.5-0.5c-0.1-0.1-0.3-0.2-0.4-0.3c-0.1-0.1-0.2-0.1-0.3-0.2
		c-0.1-0.1-0.2-0.1-0.3-0.2c-0.1,0-0.1-0.1-0.2-0.1c0,0-0.1,0-0.1,0c0,0-0.1,0-0.2,0c-0.4-0.1-0.7-0.1-1.1-0.1
		c-0.3,0.1-0.7,0.2-0.9,0.4l0,0c0,0,0,0,0,0c0,0,0,0,0,0v0c-0.3,0.3-0.8,1-0.8,1.5c0.2-0.1,0.4-0.3,0.5-0.4c0.3-0.2,0.5-0.4,0.8-0.5
		c0.1,0,0.1,0,0.2-0.1c0.4-0.1,0.8,0,1.1,0c0.1,0,0.1,0,0.2,0c0.1,0,0.2,0.1,0.3,0.1c0.1,0,0.2,0.1,0.3,0.1c0.1,0.1,0.2,0.1,0.3,0.2
		c0.2,0.1,0.3,0.2,0.5,0.3c0.2,0.1,0.4,0.3,0.6,0.4c0.2,0.1,0.3,0.3,0.5,0.4c0.3,0.2,0.5,0.5,0.8,0.7c0.1,0.1,0.2,0.2,0.3,0.2
		c0.2,0.2,0.5,0.4,0.7,0.6c0,0,0.1,0.1,0.1,0.1c0.1,0,0.1,0.1,0.2,0.1c0.3,0.1,0.5,0.2,0.8,0.2c0.1,0,0.2,0,0.4,0c0.1,0,0.1,0,0.2,0
		c0.3,0,0.6,0,0.8,0.1c0.1,0,0.1,0,0.1,0c0.1,0,0.1,0,0.1,0c0.1,0,0.2,0,0.2,0c0.3,0.1,0.5,0.2,0.8,0.4c0,0,0.1,0,0.1,0.1
		c0,0,0.1,0.1,0.1,0.2c0.1,0.3,0,0.6-0.1,0.8c0,0-0.1,0-0.1,0c-0.1,0.1-0.2,0.1-0.3,0.1h0c-0.3,0.1-0.6,0.2-0.9,0.2
		C71.8,376.6,71.7,376.6,71.6,376.6L71.6,376.6z M67.9,376.4l0-0.2l-0.1-0.9l0-0.1l0,0l0.1-0.1c0.1,0.1,0.1,0.1,0.2,0.2
		c0.1,0.1,0.3,0.2,0.3,0.4L67.9,376.4z M94.7,376.2c-4.4-1.9-7.9-5.9-7.8-10.4c0.3-0.6,0.9-0.7,1.4-0.9c2.7-1.2,4.3,1.6,6.5,2
		c-0.9-0.7-2.1-1.2-3.1-2.1c-3.5-2.8-2.7-7.5-4.1-11.2c-0.1-0.9,1.4-0.5,1.8-1.3c-2.3,0.1-5.1,0.3-6.9-1.4c-1.8,0-3.6-0.1-5-1.2
		c-0.5-0.6-1.1-1.1-1-1.9c0-0.3,0.4-0.5,0.7-0.3c1,2.2,3.3,2.7,5.6,2.6c0.2,0,0.5-0.2,0.5-0.5c-1.7-0.1-3.4-0.1-4.6-1.1
		c-0.6-0.6-1-1.3-1-2.1c-0.1-0.4,0.4-0.6,0.7-0.5c0.8-0.1,0.5-1,0.9-1.4c1.4-0.1,0.6,1.6,1.3,2.3c1,1.6,3.7,2.7,4.9,1.3
		c-1.5,0.3-3.2,0.1-4.2-1.3c-0.4-0.6-0.6-1.3-0.4-2.1l0.5-0.1c0.3-0.2,0.7-0.5,0.6-1c1.8-0.9,3.5,0.3,5.2,0.7
		c1.9-0.3,3.9,0.2,5.1,1.8c-0.1,2,2.1,2.8,3,4.4c2.8,3.6,5.4,7.3,5.3,12.2c0.6,0.8,1.4,1.6,1,2.8c-0.2,0.5-0.9,0.7-1.4,0.5
		C99.7,370,99.1,375,94.7,376.2L94.7,376.2z M66.6,375.9c0-0.3-0.2-0.5-0.3-0.8c-0.1-0.3-0.1-0.5,0.1-0.7c0,0,0,0,0,0
		c0.2,0,0.4,0,0.6,0.1c0.1,0,0.2,0.1,0.3,0.2c0,0.4-0.3,0.7-0.6,1C66.7,375.8,66.6,375.8,66.6,375.9z M62.9,375.3
		c-0.1-0.1-0.1-0.2-0.2-0.4c-0.1-0.3-0.1-0.6-0.2-0.9c0.1,0,0.3,0,0.4,0.1c0.1,0.1,0.3,0.1,0.4,0.2
		C63.2,374.7,63.2,375.1,62.9,375.3z M74.3,372.1c0,0-0.1-0.1-0.1-0.1c-0.1,0-0.1-0.1-0.2-0.1c-0.3-0.1-0.5-0.3-0.8-0.5
		c-0.1-0.1-0.1-0.1-0.2-0.2c0,0-0.1-0.1-0.1-0.1c0,0-0.1-0.1-0.1-0.1c0-0.1-0.1-0.1-0.1-0.2c0.1-0.1,0.1-0.2,0.2-0.3
		c0.1-0.1,0.1-0.1,0.2-0.2c0.1-0.1,0.1-0.1,0.2-0.2c0.1-0.1,0.2-0.1,0.3-0.2c0.3-0.2,0.7-0.3,1-0.5c0.1,0,0.2-0.1,0.3-0.1l0.1,0.2
		C74.8,370.6,75,371.7,74.3,372.1z M68.1,369.1c-0.1-0.1-0.1-0.1-0.2-0.2c-0.2-0.1-0.4-0.2-0.6-0.3c-0.2-0.1-0.3-0.1-0.5-0.2
		c-0.1-0.1-0.2-0.2-0.3-0.3c0.2-0.2,0.4-0.6,0.6-0.8c0.2-0.2,0.4-0.4,0.6-0.5c0,0,0,0,0,0c0.2,0.2,0.2,0.4,0.3,0.6
		c0,0.2,0,0.4,0.1,0.5C68.3,368.4,68.4,368.8,68.1,369.1L68.1,369.1z M71.4,368.5c-0.1,0-0.2,0-0.3,0c-0.1,0-0.2-0.1-0.3-0.2
		l0.4-0.1c0,0,0,0,0,0c0.2,0.1,0.4,0,0.5-0.2c0.1-0.2,0-0.6-0.2-0.7c-0.1,0-0.1,0-0.2,0l-0.5,0.1c0.2-0.3,0.5-0.5,0.8-0.4
		c0.3,0.1,0.5,0.7,0.4,1C71.9,368.3,71.7,368.5,71.4,368.5L71.4,368.5z M72.5,367c-0.2,0-0.4,0-0.7-0.1c0,0-0.1,0-0.1,0
		c0,0-0.1,0-0.1,0c-1.8-0.6-2.7-2.6-2.1-4.4c0.6-1.8,2.6-2.8,4.4-2.2c1.8,0.6,2.8,2.6,2.2,4.4C75.5,366.1,74,367.1,72.5,367
		L72.5,367z M49.1,366.1c-1.7-1.1-2.4-3-3-4.7c-0.5,0.1,0.1,1.1-0.6,1.3c-0.5,0-0.8-0.6-1-1c-0.2-0.8,0.2-1.6,0.6-2.2
		c0-4.2,1.4-8.1,5.1-10.4c0.4-1.1,0.5-2.3,1.3-3.2c1.2-1.4,3.3-1.3,5-1c1.3-1,3-1.6,4.6-0.7c0,0.5,0.4,0.8,0.7,1
		c0.4,0.3,0.9-0.1,1.3-0.1c0.4,0.8-0.1,1.5-0.2,2.3c-0.6,1.8-2.7,1-4,1.7c-0.2,0.2,0.1,0.4,0.2,0.5c1-0.7,2.5-0.3,3.5-1
		c0.7-0.4,1.2-1.2,1.3-2c0.2-0.5,0-1.2,0.4-1.6c0.6,0.3-0.1,0.8,0.1,1.3c0.2,0.7,1.1,0.7,1.7,0.7c0.2,0.9-0.3,1.7-1,2.3
		c-1,1.2-2.4,0.4-3.7,1c-0.2,0.2,0,0.4,0.2,0.5c0.9-0.3,1.7,0,2.6-0.2c1.1-0.2,1.8-1,2.3-2c0.4,0,0.9,0.4,1.2,0.6
		c-0.1,0.7-0.6,1.3-1,1.9c-0.8,0.6-1.9,1.1-3,0.6c-1.5-0.6-2.3,0.7-3.4,1.3c-1.5,0.6-3.3,0-4.5-1.2l-0.2,0.2c0.5,1.1,2,1.4,3,1.9
		l-0.3,0.3c-0.6,3-3.8,4-6.3,4.8l0.2,0.2c1.4-0.1,2.4-0.9,3.8-1c0.6,0.1,1,0.5,1.4,0.9c-2.3,1.5-4.6,3.3-6.3,5.6
		C50.5,365.1,50,366.2,49.1,366.1L49.1,366.1z M82.3,360.4c-0.8,0.1-1.6-0.7-2.5-0.8c-1.8-0.7,0.2-2.6-1.3-3.6
		c0.2-0.2,0.9-0.2,0.7-0.6c-1.4,0.2-3.4,0.4-4.5-0.7l0.3-0.1c-0.4-0.6-1.4-0.3-1.8-1.2c-0.4-0.5-0.6-1.2-0.4-1.9h0.6
		c0.3-0.1,0.2-0.5,0.5-0.7c1,0,0.1,0.8,0.3,1.4c0,0.8,0.4,1.5,1.1,2c0.5,0.1,1,0.5,1.5,0.1c-1.5,0-2.4-1.7-2-3l0.8,0.2
		c0.2-0.1,0.5-0.3,0.6-0.6c1.6-0.5,2.8,0.5,4.2,0.6c2.7,1.9,4.6,4.7,4.9,7.9c-0.4,0.9-1.5,0.5-2.2,0.7
		C82.8,360.3,82.5,360.4,82.3,360.4L82.3,360.4z M73.3,354.2c-1,0-2-0.5-2.3-1.4c-0.3-0.7,0.2-1.1,0.7-1.4c0.2-0.2-0.1-0.6,0.3-0.6
		c0.4,0.1,0.3,0.4,0.2,0.6C71.9,352.5,72.4,353.5,73.3,354.2z M106.1,351.9c-0.1,0-0.2,0-0.3,0c-0.4-0.1-0.7-0.6-0.6-0.9
		c0.3,0.6,1.1-0.2,1.2,0.5C106.4,351.6,106.3,351.8,106.1,351.9z M108.3,351.6c-0.1,0-0.2,0-0.3,0c-0.3-0.2-0.7-0.5-0.6-1
		c0.5,0.2,1,0.3,1.4,0.5C108.7,351.4,108.6,351.6,108.3,351.6L108.3,351.6z M112.6,351.4c-0.1,0-0.2,0-0.2,0
		c-0.3-0.2-0.7-0.7-0.4-1.1c0.2,0.2,0.5,0.5,0.9,0.2c0.1,0.1,0.3,0.3,0.2,0.5C113,351.2,112.8,351.4,112.6,351.4z M70.8,351.3
		c-0.2-0.2-0.4-0.4-0.3-0.6c0.2,0.1,0.7-0.1,0.9,0.2C71.3,351.2,71.1,351.3,70.8,351.3L70.8,351.3z M75.5,351.2c0,0-0.1,0-0.1,0
		c-0.2-0.1-0.4-0.4-0.4-0.6c0.2,0.3,0.7,0.1,0.7,0.5C75.7,351.1,75.6,351.2,75.5,351.2z M73.2,351.1c-0.3,0-0.5-0.4-0.6-0.6
		c0.3,0.2,0.9-0.1,0.8,0.4C73.4,351.1,73.3,351.1,73.2,351.1L73.2,351.1z M67.7,348.4c-0.1,0-0.2,0-0.3,0c-0.2,0-0.3-0.1-0.4-0.2
		c-0.3-1.3,1-0.2,1.5-0.6v0.2C68.4,348.1,68.1,348.3,67.7,348.4L67.7,348.4z M76.5,347.2c-0.1,0-0.2,0-0.3,0
		c-0.2-0.2-0.5-0.5-0.5-0.8h0.2c0.2,0.4,1.2-0.2,0.9,0.6C76.7,347.2,76.6,347.2,76.5,347.2L76.5,347.2z M65.1,346.6
		c-0.2,0-0.3-0.1-0.4-0.2c-0.2-1.3,1.1-0.3,1.6-0.7v0.2C66,346.2,65.6,346.6,65.1,346.6L65.1,346.6z M78.1,345.7
		c-0.2,0-0.4-0.1-0.5-0.3c-0.1-0.2-0.5-0.5-0.2-0.8c0.4,0.4,1.1,0.2,1.3,0.8c-0.1,0.1-0.2,0.3-0.3,0.3
		C78.3,345.7,78.2,345.7,78.1,345.7z M62.2,344.7c-0.1,0-0.3,0-0.4,0c-0.2-0.2-0.4-0.4-0.3-0.6c0.3-0.7,1.1,0,1.6-0.3v0.3
		C62.9,344.4,62.6,344.7,62.2,344.7z M81.2,344.4c-0.1,0-0.1,0-0.2,0c-0.3-0.1-0.7-0.5-0.4-0.8c0.3,0.2,0.7,0.3,0.9,0.5
		C81.5,344.2,81.4,344.4,81.2,344.4z"/>
	<path class="st3" d="M70,363.6l0.3,0.1l2.7-3.1l1,0.4l0.3,4.1l0.3,0.1l-0.3,0.7l-1.9-0.7l0.3-0.8l0.5,0.2l-0.1-2.3l-1.5,1.8
		l0.4,0.1l-0.3,0.7l-1.9-0.7L70,363.6z"/>
	<path class="st0" d="M68,393.1c-0.2-0.1-0.3-0.2-0.4-0.3c-0.1-0.1-0.1-0.1-0.2-0.2c0,0-0.1-0.1-0.1-0.1c0,0-0.1-0.1-0.1-0.1
		c-0.2-0.4-0.4-0.8-0.5-1.2c0-0.1-0.1-0.3-0.1-0.4c-0.1-0.3-0.1-0.5-0.2-0.8c-0.1-0.4-0.2-0.9-0.3-1.3c0.1,0.4,0.2,0.7,0.3,1.1
		c0.1,0.2,0.1,0.4,0.2,0.6c0.1,0.1,0.1,0.2,0.1,0.3c0.2,0.3,0.4,0.7,0.6,1c0,0.1,0.1,0.1,0.1,0.1c0,0,0.1,0.1,0.1,0.1
		c0.1,0.1,0.1,0.1,0.2,0.2c0,0,0.1,0.1,0.1,0.1c0.2,0.2,0.5,0.2,0.7,0.2c0.1,0,0.2,0,0.2-0.1c0.2-0.1,0.3-0.1,0.5-0.1
		c-0.2,0.2-0.4,0.6-0.6,0.8c-0.1,0.1-0.2,0.1-0.3,0.2C68.2,393.1,68.1,393.1,68,393.1z M59.8,391.1c0,0-0.1-0.1-0.2-0.1
		c-0.4-0.3-0.7-0.9-0.8-1.4c-0.1-0.4-0.1-0.8,0-1.2c0,0.2,0.1,0.5,0.1,0.7c0,0.2,0.1,0.3,0.1,0.5c0.1,0.3,0.4,0.6,0.7,0.6
		c0.1,0,0.1,0,0.2,0c0,0,0.1,0,0.1,0c0.1,0,0.2-0.1,0.3-0.1c0.2,0,0.3-0.1,0.4-0.2c0.2-0.1,0.3-0.2,0.5-0.3c0.2-0.2,0.5-0.4,0.7-0.6
		c0.4-0.4,0.7-0.8,0.9-1.3l0,0.1c-0.3,0.7-0.7,1.7-1.3,2.4c-0.2,0.2-0.4,0.4-0.7,0.6c-0.1,0.1-0.3,0.1-0.4,0.2
		c-0.1,0-0.3,0.1-0.4,0.1C60,391.1,59.9,391.1,59.8,391.1L59.8,391.1z M64.6,389.6c-0.1,0-0.1-0.1-0.2-0.1c-0.1-0.1-0.2-0.1-0.3-0.2
		c-0.3-0.2-0.5-0.5-0.6-1c0.2,0.2,0.5,0.3,0.7,0.4c0.1,0,0.2,0.1,0.3,0.1c0.3,0.1,0.6,0.1,0.9,0.1c0.1,0,0.1,0,0.2,0l0,0.1
		c-0.1,0.2-0.2,0.3-0.3,0.4C65.1,389.5,64.8,389.6,64.6,389.6L64.6,389.6z M68,385.2c-0.1,0-0.2,0-0.2-0.2c0-0.2,0.2-0.2,0.4-0.2
		l0,0c0.1,0,0.1,0,0.1,0.1c0,0,0,0.1,0,0.2c0,0,0,0,0,0C68.2,385.2,68.1,385.2,68,385.2z M67.7,384.6c-0.3-0.1-0.1-0.6,0.2-0.4
		c0,0,0,0,0,0c0.1,0,0.2,0.2,0.2,0.3c-0.1,0-0.2,0.1-0.3,0.1C67.8,384.6,67.7,384.6,67.7,384.6z M66.5,384.5
		c-0.1-0.1-0.2-0.2-0.1-0.3c0.1-0.1,0.2-0.1,0.3-0.1c0.1,0,0.2,0,0.2,0.1C66.9,384.4,66.8,384.5,66.5,384.5
		C66.6,384.5,66.5,384.5,66.5,384.5z M70.4,384.4c0.1-0.2,0.3-0.3,0.4-0.5c0.2-0.2,0.3-0.5,0.4-0.7c0.9-1.8,0.9-3.9,2.2-5.5l0,0.1
		c-0.9,1.9-0.6,4.5-2.3,6c-0.1,0.1-0.2,0.2-0.3,0.2C70.6,384.3,70.5,384.3,70.4,384.4L70.4,384.4z M68.7,384.1c-0.1,0-0.1,0-0.1,0
		c-0.1,0-0.1-0.1-0.2-0.2c0-0.1,0-0.2,0.1-0.3c0,0,0.1-0.1,0.2-0.1v0c0,0,0,0,0,0c0,0,0,0,0,0l0,0c0.1,0.1,0.3,0.2,0.3,0.3
		C69,384,68.8,384.1,68.7,384.1z M64.6,384.1c0,0-0.1,0-0.1,0c-0.2-0.1-0.3-0.6,0.1-0.4c0,0,0,0,0,0c0.1,0.1,0.2,0.2,0.2,0.4
		C64.8,384,64.7,384,64.6,384.1z M62.9,384c0,0-0.1,0-0.1,0c-0.1,0-0.2-0.2-0.2-0.2l0.2-0.2c0,0,0.1,0,0.1,0
		c0.1,0.1,0.1,0.2,0.2,0.3C63,384,62.9,384,62.9,384L62.9,384z M67.3,383.7c-0.1,0-0.1,0-0.2,0c-0.3-0.1-0.3-0.6,0.1-0.5l0,0
		c0.1,0,0.3,0.1,0.2,0.3C67.5,383.6,67.4,383.6,67.3,383.7z M63.5,383.5C63.4,383.5,63.4,383.5,63.5,383.5c-0.2-0.1-0.3-0.3-0.2-0.5
		c0.1-0.1,0.2-0.1,0.3,0c0,0,0.1,0,0.1,0.1C63.8,383.2,63.7,383.5,63.5,383.5z M64.3,383C64.2,383,64.2,383,64.3,383
		c-0.2-0.1-0.2-0.2-0.3-0.3l0.3-0.2c0,0,0.1,0,0.1,0c0.2,0.1,0.3,0.3,0.2,0.5L64.3,383z M62.6,382.7c-0.1,0-0.2-0.1-0.3-0.2
		c-0.1-0.2-0.1-0.4,0.1-0.5c0,0,0.1,0,0.1,0c0.1,0,0.2,0,0.3,0.1c0.1,0.1,0.2,0.1,0.2,0.3C63,382.6,62.9,382.7,62.6,382.7
		C62.7,382.7,62.7,382.7,62.6,382.7z M60.8,382.1c-0.2-0.4-0.4-0.8-0.5-1.2c-0.5-2.1,0.4-4.4,0.8-6.4c0.3,1.8-0.4,3.5-0.5,5.4
		c0,0.7,0,1.4,0.3,2.1c0,0.1,0,0.1,0.1,0.2L60.8,382.1L60.8,382.1z M85.1,381.8l-4.1-4.4l0.9-0.9l0.4,0.5l3.5-3.2l-0.4-0.5l0.9-0.9
		l2.2,2.4l-0.9,0.9l-0.6-0.6l-1.2,1.1l0.4,0.4l0.6-0.5l0.8,0.8l-2,1.9l-0.8-0.8l0.5-0.5l-0.4-0.4l-1.4,1.3l1.4,1.5l0.8-0.8l1,1
		L85.1,381.8z"/>
</g>
</svg>
