<?xml version="1.0" encoding="utf-8"?>
<!-- Generator: Adobe Illustrator 25.0.1, SVG Export Plug-In . SVG Version: 6.00 Build 0)  -->
<svg version="1.0" id="katman_1" xmlns="http://www.w3.org/2000/svg" xmlns:xlink="http://www.w3.org/1999/xlink" x="0px" y="0px"
	 viewBox="0 0 560 400" style="enable-background:new 0 0 560 400;" xml:space="preserve">
<style type="text/css">
	.st0{fill:#011E41;}
</style>
<path class="st0" d="M276.8,78.3c-6.4,0.1-12.8,0.3-19.1,0.7v9.5c1.6,0.1,2.7,0.4,3.4,0.8c0.6,0.5,1,1.2,1,2.1c0,0.5,0,0.9-0.1,1.3
	c0,0.3-0.1,0.7-0.2,0.9c-2.8,11-5.5,22.1-8.3,33.2c-3-10.8-6-21.5-9-32.2c-0.1-0.3-0.2-0.6-0.3-0.9c0-0.3-0.1-0.6-0.1-0.9
	c0-0.9,0.3-1.6,1-2.2c0.7-0.6,1.7-1,3.3-1.4v-9.5c-9.5,0.9-19.1,2.2-28.5,4v9.5c1.4,0.1,2.5,0.4,3.2,1c0.7,0.6,1.3,1.7,1.8,3.3
	c4.2,14,8.5,28,12.7,42.1c9.5-1.2,19-2,28.6-2.4c4-14.9,8.1-29.6,12.2-44.3c0.4-1.5,1-2.6,1.8-3.4c0.7-0.8,1.7-1.4,2.9-1.7v-9.5
	C281,78.3,278.9,78.3,276.8,78.3L276.8,78.3z M298.1,78.8c-3.9,14-7.8,28.1-11.7,42.2c-0.6,2.3-1.3,3.8-2,4.5
	c-0.7,0.8-1.7,1.3-3,1.6v9.9c8.5,0,17,0.4,25.5,1.1v-9.9c-1.6-0.2-2.7-0.5-3.4-1c-0.7-0.5-1.1-1.3-1.1-2.2c0-0.2,0-0.5,0.1-0.7
	c0-0.3,0.1-0.6,0.2-1c0.2-0.7,0.5-1.5,0.7-2.2c5.3,0.4,10.7,0.9,16,1.5c0.2,0.8,0.5,1.7,0.7,2.6c0.1,0.3,0.1,0.7,0.2,1
	c0,0.3,0.1,0.6,0.1,0.8c0,0.8-0.4,1.4-1.1,1.8c-0.8,0.4-1.8,0.6-3,0.5v9.9c9.4,1,18.7,2.4,28,4.3v-9.9c-1.3-0.5-2.2-1.2-2.9-2
	c-0.7-0.8-1.3-2.2-1.8-4.1c-4.3-15.3-8.5-30.5-12.8-45.7C317.2,80.2,307.7,79.3,298.1,78.8L298.1,78.8z M213.4,85
	c-19.2,3.9-38.1,9.6-56.6,16.9v9.5c1.5-0.4,2.6-0.3,3.2,0.2c0.6,0.5,0.9,1.9,0.9,4.3v27.1c0,2.4-0.3,4-0.9,5
	c-0.6,0.9-1.6,1.8-3.2,2.7v9.9c18.4-7.4,37.4-13,56.6-16.9v-19.7c-5.9,1.2-11.8,2.6-17.7,4.1v2.1c0,2.4-0.6,4.3-1.8,5.5
	c-1.2,1.2-3.4,2.2-6.5,3.2c-2.7,0.8-5.4,1.6-8.1,2.5v-14.1c7.3-2.3,14.6-4.4,22-6.2v-9.9c-7.4,1.8-14.8,3.9-22,6.2v-12.3
	c2.3-0.7,4.6-1.4,6.9-2.1c3.6-1.1,6.1-1.3,7.5-0.8c1.4,0.5,2.1,1.9,2.1,4.2v0.6c5.9-1.5,11.7-2.9,17.7-4.1V85L213.4,85z M350.7,85.9
	v9.5c1.6,0.6,2.7,1.3,3.3,2.2c0.6,0.8,0.9,2.5,0.9,4.8v27.1c0,2.4-0.3,3.9-0.9,4.4c-0.6,0.6-1.7,0.8-3.3,0.7v9.9c9,2,18,4.3,26.9,7
	c12.3,3.8,20.4,5.4,24.5,4c4.1-1.5,6.1-6.5,6.1-15.4v-14c0-8.4-2.1-15.1-6.4-20c-4.3-4.9-12.3-9.6-24.2-13.2
	C368.8,90.2,359.8,87.9,350.7,85.9L350.7,85.9z M311,90.8c1.9,7.7,3.8,15.3,5.7,23c-3.7-0.4-7.5-0.8-11.3-1.1
	C307.3,105.4,309.1,98.1,311,90.8L311,90.8z M373.6,103.4c1.8,0.5,3.6,1,5.3,1.5c0.3,0.1,0.7,0.2,1.1,0.3c3.9,1.2,6.5,2.7,7.9,4.4
	c1.4,1.7,2.1,4.5,2.1,8.4v17.7c0,3.4-0.7,5.3-2.2,5.9c-1.5,0.6-4.4,0.1-8.8-1.3c-1.8-0.6-3.6-1.1-5.4-1.6L373.6,103.4z M147,106.1
	c-8.2,3.6-16.3,7.5-24.3,11.8v9.5c1.5-0.6,2.5-0.6,3.1-0.1c0.6,0.5,0.9,1.8,0.9,3.9v17.6c-6.4-7.7-12.6-15.2-18.8-22.4
	c-6.4,3.9-12.7,8-19,12.4c0,3.1,0,6.3,0,9.5c1.3-0.7,2.3-0.9,2.8-0.5c0.5,0.3,0.8,1.4,0.8,3.1V179c0,2.3-0.3,4-0.8,5.1
	c-0.5,1.1-1.5,2.2-2.8,3.3c0,3.3,0,6.6,0,9.9c7.5-5.2,15.1-10.1,22.8-14.7c0-3.3,0-6.6,0-9.8c-1.5,0.7-2.5,0.8-3,0.3
	c-0.6-0.5-0.8-1.8-0.8-4v-17.5c6.2,7.4,12.5,14.9,18.8,22.7c5.3-2.8,10.6-5.4,16-7.8V124c0-2.5,0.3-4.3,0.9-5.3
	c0.6-1,1.7-2.1,3.3-3.1V106.1z M429.9,114c-3.6,12.4-7.2,24.9-10.8,37.4c-0.6,2-1.2,3.2-1.8,3.7c-0.7,0.5-1.6,0.6-2.8,0.3v9.9
	c7.9,3.5,15.8,7.3,23.5,11.5V167c-1.4-0.8-2.4-1.6-3.1-2.4c-0.6-0.8-1-1.7-1-2.7c0-0.2,0-0.5,0-0.7c0-0.3,0.1-0.6,0.1-0.9
	c0.2-0.6,0.4-1.3,0.6-1.9c4.9,2.6,9.7,5.3,14.5,8.1c0.2,0.9,0.4,1.9,0.6,2.8c0.1,0.4,0.1,0.7,0.1,1c0,0.3,0.1,0.6,0.1,0.8
	c0,0.8-0.3,1.2-1,1.3c-0.7,0.1-1.6-0.2-2.7-0.7v9.9c8.4,4.9,16.7,10.2,24.8,15.8v-9.9c-1.1-1-1.9-2.1-2.5-3.3
	c-0.6-1.1-1.1-2.7-1.6-4.8c-3.7-17.1-7.5-34.1-11.3-51C447.2,123.3,438.6,118.4,429.9,114z M441.6,131.3c1.7,8.4,3.4,16.9,5.1,25.3
	c-3.4-2-6.8-3.9-10.2-5.7C438.2,144.4,439.9,137.9,441.6,131.3L441.6,131.3z M306.6,159.3c-1.6,0.2-5.6,0.2-4.9,5.6
	c0.3,2.4,0.8,7.4,1.4,10.2c0,0-42.1,0.1-63.1-3.4l6.1,5.8c0,0-46.2,6-65.6,4.6l7.3,6.2c0,0-24.6,6.6-66.8,11.9
	c0,0,28.6,3.3,44.9,14.6c59.4-12.7,117.9-11.3,117.9-11.3s-48.5,6.1-84.1,15.7c0,0,8,1.1,10.9,4.1c0,0-48.2,11-95.2,31.5
	c0,0,26.9,1.3,50.1,5.2l2.6,0.5c57-22.1,109.7-26,109.7-26c-48.9,9.4-88.2,30.3-88.2,30.3c9,2.2,11.5,2.8,20.2,5.6
	c0,0,51.4-24.9,101.1-28.9c0,0-6.6,3.9-8.2,10.7c0,0,19.4-6.2,39.6-5c0,0-20.2,3.3-36.5,12.1c-8.7,4.7-21.7,15.7-21.7,15.7
	s0-10.5,4.2-17.5c0,0-27.7,5.2-50,25.1c0,0,28,14.5,33.7,35.9c0,0,0.5,2.4,0.6,2.9l0,0.5c39.8-63.3,139.8-41.7,139.8-41.7
	s3.4,0.5,9.3-3.2c0,0,1.7-1.1,1.6-2.5c0-0.5-0.6-0.8-1.5-1.1c0.3-1.9,0.3-3,0.2-3.4c-0.1-0.5-0.4-0.1-0.4-0.1c-0.7,1.1-1.3,2.1-2,3
	c-0.7-0.1-1.4-0.2-2-0.3c0.4-2.5,0.5-4.5,0.4-4.9c-0.2-0.5-0.4-0.1-0.4-0.1c-1.1,1.8-2.3,3.4-3.4,4.6c-2.1-0.7-3.5-1.3-4.5-1.9
	c0.3-1.7,0.3-3.5,0.4-5.5c0-0.4,0.1-0.5,0-0.5c-0.1-0.1-0.6,0.3-0.6,0.3c-0.9,1.2-2,2.2-3,3.1c-0.7-0.7-1.6-1.4-3-2.3
	c0.5-2.4,0.6-3.3,0.4-5.9c0-0.4-0.1-0.7-0.3-0.7c-0.2,0-0.6,0.5-0.6,0.5c-1.5,1.6-3.4,2.8-4.8,3.6c-0.9-0.3-1.8-0.6-2.7-0.8
	c0-0.2,0-0.5-0.1-0.7c-0.3-2.9-1-4.6-1.3-4.7c-0.3-0.2-0.8,0.5-0.8,0.5c-1.1,1.6-2.7,3-4.3,4c-1.9-0.1-3.8,0-5.7,0.1
	c0,0-1.8,0-2.4-1.1c-1.6-3.1,1.7-6.4,1.7-6.4c2.4-2,7.6-5.7,15.1-6.3c0.2,0.6,0.6,1.3,1,2.2c0,0,0.7,1.5,1.1,1.6
	c0.4,0.1,1.8-0.7,3.4-2.5c0.3-0.3,0.5-0.6,0.7-1c1,0.2,2.1,0.4,3.1,0.7c-0.2,0.9-0.5,1.8-0.9,2.8c0,0-0.5,1,0.2,0.8
	c0.5-0.1,2.1-0.9,4-2.5c0.7,0.3,1.4,0.6,2.2,0.9c-0.2,1-0.6,2.1-1,3.3c0,0-0.5,1,0.2,0.8c0.5-0.1,2.1-0.9,4-2.5c0,0,0.1,0,0.1,0.1
	c1.1,0.6,2.1,1.1,3.1,1.6c-0.8,3.1-1.7,6.4-2.9,8.9c0,0-0.1,0.3,0,0.4c0.2,0.1,0.4-0.1,0.4-0.1c0.3,0,3.8-3.3,6.8-7.6
	c1.4,0.4,2.8,0.6,4,0.6c-0.2,1.2-0.6,2.6-1.1,3.9c0,0-0.1,0.3,0,0.3c0.2,0,1.9-1.2,4.6-4.3c3.9-0.4,6.4-2,7.2-2.5
	c1.3-0.8,1.4-1,1.4-1c0.8-0.7,1.4-1.4,2.1-2.5c5.2-7.8-1.2-10.6-1.2-10.6c-3.6-1.6-7.2-2.8-7.2-2.8c-6.1-2.8-22.7-9.1-30.1-18.3
	c-10.4-12.9-15.7-16-15.7-16c-9.9-5.7-27.4-15.4-35.9-18.7c-0.8-0.4-1.9-0.9-2.7-1.2C319.8,170,308.1,159.1,306.6,159.3L306.6,159.3
	z M304.3,180.6c1.8,0.1,3.9,1,3.9,1s14.2,6.2,25.3,13.4c0,0,1.3,0.9,0.7,1.6c-0.3,0.3-1,0.5-1,0.5c-4.7,1.6-14.8,1-14.8,1
	s3.1,4.9,7.4,7.2c0,0-4.6,1-6.4,0.9c0,0,4.3,2.1-0.7,4.6c0,0-2,1.4-3.9-1c-1.9-2.4-10.4-11.1-12.9-24.5c0,0-0.8-3.6,0.8-4.6
	C303.1,180.7,303.7,180.6,304.3,180.6L304.3,180.6z M381.5,213.2c0.3,0,0.6,0.2,0.6,0.2l31,20.5c-22-12-26.3-4.6-26.3-4.6
	s-0.2,0.2-0.3,0c-0.1-0.1,0,0,0-0.4c-0.9-7.2-5.1-14.7-5.1-14.7s-0.4-0.5,0-0.9C381.3,213.3,381.4,213.2,381.5,213.2L381.5,213.2z
	 M389.3,221.2c0,0,1.7,2.3,1.3,4.1c0,0,3.3,1.3,4.5-0.8C395.1,224.6,392.2,222.1,389.3,221.2L389.3,221.2z M433.4,239.3
	c1.1,0,2.1,0.1,2.8,0.4c1.8,0.7,6.9,2.5,4.8,7.1s-4.3,5.1-4.3,5.1s-1,0.2-1.4-0.3c-0.4-0.5-0.6-0.9-0.2-1.1c0.4-0.2,3.3-1.5,3.4-3.3
	c0.1-1.7-0.9-2.2-1.3-2.2c-0.4,0-1.4,0.3-0.9,1.5c0.5,1.3-0.7,2.1-0.7,2.1s-0.9,0.7-1.4,0.1c-0.6-0.6-3.8-3.2-4.4-3.6
	c0,0-2-1.4-0.9-3.7C429.6,239.9,431.5,239.4,433.4,239.3L433.4,239.3z M396.2,240.8c1.6-0.1,3.3,0.2,4.8,0.8c1.2,0.4,3.6,1.4,4,2.8
	c0,0,0,0.1,0,0.1c-0.3,0.3-3.3-0.5-3.4-0.5c-1.7-0.3-3.5-0.4-5.2-0.2c-1.8,0.2-3.5,0.6-5.2,1.2c-1.2,0.4-2.8,1.6-4.1,1.3
	c0-0.9,1.2-2,1.9-2.6c1.3-1,2.7-1.9,4.3-2.4C394.3,241,395.3,240.8,396.2,240.8L396.2,240.8z"/>
</svg>
