<?xml version="1.0" encoding="utf-8"?>
<!-- Generator: Adobe Illustrator 26.0.3, SVG Export Plug-In . SVG Version: 6.00 Build 0)  -->
<svg version="1.0" id="Layer_1" xmlns="http://www.w3.org/2000/svg" xmlns:xlink="http://www.w3.org/1999/xlink" x="0px" y="0px"
	 viewBox="0 0 887 677" style="enable-background:new 0 0 887 677;" xml:space="preserve">
<style type="text/css">
	.st0{fill:#FFFFFF;}
	.st1{fill:#ABADA9;}
	.st2{fill:#8C2535;}
</style>
<g id="chico-st_BGD">
	<g id="chico-st_bgd-2">
		<g id="Group-3">
			<g>
				<path id="Fill-1" class="st0" d="M667.8,473.8c0.4-0.8,0.8-1.5,1.2-2.3C668.6,472.3,668.2,473,667.8,473.8z M663.8,480.9
					c0.5-0.8,1-1.7,1.5-2.5C664.7,479.3,664.2,480.1,663.8,480.9L663.8,480.9z M659.8,487.3c0.6-0.8,1.1-1.6,1.7-2.5
					C660.8,485.6,660.2,486.5,659.8,487.3L659.8,487.3z M651.4,498.1c0.6-0.7,1.2-1.4,1.8-2.1C652.5,496.7,651.9,497.4,651.4,498.1
					L651.4,498.1z M655.6,493c0.6-0.8,1.2-1.5,1.8-2.3C656.7,491.4,656.1,492.2,655.6,493L655.6,493z M647,502.8
					c0.6-0.6,1.2-1.3,1.8-1.9C648.2,501.5,647.6,502.2,647,502.8z M642.6,506.9c0.6-0.5,1.2-1.1,1.8-1.7
					C643.8,505.8,643.2,506.4,642.6,506.9L642.6,506.9z M638.1,510.6c0.6-0.4,1.1-0.9,1.7-1.3C639.2,509.7,638.7,510.1,638.1,510.6
					L638.1,510.6z M633.6,513.7c0.4-0.2,0.7-0.5,1.1-0.8C634.4,513.2,634,513.5,633.6,513.7L633.6,513.7z M627.8,517.1
					c0.4-0.2,0.8-0.4,1.3-0.6C628.6,516.7,628.2,516.9,627.8,517.1L627.8,517.1z M622.7,519.5c0.6-0.2,1.2-0.5,1.8-0.7
					C623.9,519,623.3,519.2,622.7,519.5L622.7,519.5z M618,521.2c0.6-0.2,1.3-0.4,1.9-0.6C619.2,520.8,618.5,521,618,521.2z
					 M613.3,522.5c0.7-0.2,1.3-0.3,2-0.5C614.5,522.2,613.9,522.4,613.3,522.5L613.3,522.5z M608.6,523.4l2-0.3L608.6,523.4z
					 M604,523.9c0.7,0,1.3-0.1,2-0.2C605.2,523.8,604.6,523.9,604,523.9L604,523.9z M599.3,524.1h2c-0.4,0-0.8,0-1.3,0L599.3,524.1z
					 M595.2,523.9c0.8,0.1,1.6,0.1,2.4,0.1C596.8,524,596,523.9,595.2,523.9L595.2,523.9z M591.2,523.4c0.8,0.1,1.6,0.2,2.3,0.3
					C592.7,523.6,592,523.5,591.2,523.4L591.2,523.4z M587.2,522.6c0.8,0.2,1.6,0.3,2.3,0.5c-0.9-0.1-1.6-0.3-2.5-0.5H587.2z
					 M583.2,521.6c0.8,0.2,1.6,0.5,2.4,0.7c-0.9-0.2-1.7-0.5-2.5-0.7L583.2,521.6z M579,520.2c0.9,0.3,1.8,0.7,2.8,1
					C580.8,520.9,579.8,520.5,579,520.2L579,520.2z M574.4,518.3c1.2,0.6,2.4,1.1,3.7,1.6c-1.3-0.5-2.5-1.1-3.8-1.6L574.4,518.3z
					 M570.7,516.4c0.9,0.5,1.8,0.9,2.7,1.4C572.5,517.3,571.6,516.9,570.7,516.4z M567.3,514.4c0.7,0.4,1.4,0.9,2.2,1.3
					C568.7,515.2,568,514.8,567.3,514.4z M564,512.1c0.7,0.5,1.3,0.9,2,1.3C565.2,513,564.6,512.6,564,512.1z M560.7,509.6
					c0.6,0.5,1.2,1,1.9,1.5C562,510.6,561.3,510.1,560.7,509.6L560.7,509.6z M557.7,507c0.6,0.5,1.2,1.1,1.8,1.6
					C558.8,508,558.2,507.5,557.7,507L557.7,507z M551.8,500.9c0.6,0.7,1.2,1.4,1.8,2C553,502.3,552.3,501.6,551.8,500.9
					L551.8,500.9z M548.4,496.7c0.8,1.1,1.6,2.2,2.5,3.2C550,498.9,549.2,497.8,548.4,496.7L548.4,496.7z M554.7,504.1
					c0.6,0.6,1.2,1.2,1.7,1.8C555.8,505.3,555.2,504.7,554.7,504.1L554.7,504.1z M510.1,480.3c1.3-0.3,2.7-0.6,4-0.8
					C512.7,479.7,511.4,479.9,510.1,480.3z M515.2,479.3c1.5-0.2,2.9-0.5,4.4-0.6C518.2,478.8,516.7,479,515.2,479.3L515.2,479.3z
					 M470.2,498.7c-1.5,0.9-3.1,1.9-4.6,2.9C467.1,500.6,468.7,499.6,470.2,498.7L470.2,498.7z M474.9,495.9
					c-1.3,0.8-2.6,1.5-3.9,2.3C472.3,497.4,473.6,496.6,474.9,495.9L474.9,495.9z M480.3,492.8c-1.5,0.8-2.9,1.7-4.4,2.5
					C477.3,494.4,478.8,493.6,480.3,492.8L480.3,492.8z M484.8,490.4c-1.2,0.7-2.4,1.3-3.7,2C482.3,491.6,483.5,491,484.8,490.4
					L484.8,490.4z M490.1,487.6c-1.4,0.7-2.9,1.4-4.3,2.2C487.2,489,488.7,488.3,490.1,487.6L490.1,487.6z M494.6,485.6
					c-1.2,0.5-2.5,1.1-3.7,1.7C492.1,486.7,493.3,486.1,494.6,485.6L494.6,485.6z M500,483.4c-1.4,0.5-2.9,1.1-4.3,1.7
					C497.1,484.5,498.5,483.9,500,483.4z M504.3,481.9c-1.3,0.4-2.5,0.8-3.8,1.3C501.8,482.7,503,482.3,504.3,481.9L504.3,481.9z
					 M509.8,480.3c-1.4,0.4-2.9,0.8-4.3,1.2C506.8,481.1,508.3,480.7,509.8,480.3L509.8,480.3z M453,509.5l7.2-4.5L453,509.5z
					 M448.8,512.1l2.6-1.6L448.8,512.1z M443,515.7l1.5-0.9L443,515.7z M437.7,518.9l1.8-1.1L437.7,518.9z M431.8,522.4l1.1-0.7
					L431.8,522.4z M460.3,504.8l4.7-2.9L460.3,504.8z M331.3,554.3l-1.9,0.1L331.3,554.3z M339.7,553.7c-0.6,0.1-1.2,0.1-1.8,0.1
					C338.6,553.8,339.2,553.8,339.7,553.7L339.7,553.7z M349,552.6l-1.6,0.2L349,552.6z M357,551.4l-1.8,0.3L357,551.4z
					 M311.6,554.4l3.1,0.1L311.6,554.4z M304.6,554l3.1,0.2L304.6,554z M297.5,553.4l3.2,0.3L297.5,553.4z M290.2,552.5l3.3,0.4
					L290.2,552.5z M282.7,551.5l3.4,0.5L282.7,551.5z M275,550.1l3.5,0.6L275,550.1z M267.1,548.6c1.2,0.3,2.4,0.5,3.5,0.7
					C269.5,549.1,268.3,548.8,267.1,548.6L267.1,548.6z M259.1,546.7l3.6,0.8L259.1,546.7z M250.8,544.6c1.2,0.3,2.4,0.6,3.6,1
					C253.3,545.3,252.1,544.9,250.8,544.6L250.8,544.6z M242.4,542.2c1.2,0.4,2.5,0.7,3.7,1.1C244.9,542.9,243.6,542.6,242.4,542.2
					L242.4,542.2z M233.7,539.5c1.2,0.4,2.5,0.8,3.7,1.2C236.2,540.3,235,539.9,233.7,539.5L233.7,539.5z M224.8,536.5l3.8,1.3
					L224.8,536.5z M318.4,554.5c0.9,0,1.9,0,2.8,0h-0.5H318.4z M200.1,527c-1-0.4-2.1-0.8-3.1-1.3C198,526.2,199,526.6,200.1,527z
					 M210.1,531c-1.2-0.5-2.4-0.9-3.6-1.4C207.7,530.2,208.9,530.6,210.1,531L210.1,531z M197.5,522.7l-2.5-0.2L197.5,522.7z
					 M205.6,523.3l-2.9-0.2L205.6,523.3z M213.4,523.6l-3.1-0.1L213.4,523.6z M228.4,523.2c-1,0.1-2,0.1-3,0.2
					C226.4,523.4,227.4,523.3,228.4,523.2L228.4,523.2z M235.7,522.6c-0.9,0.1-1.9,0.2-2.8,0.3C233.8,522.8,234.7,522.8,235.7,522.6
					L235.7,522.6z M242.8,521.8c-0.8,0.1-1.6,0.2-2.3,0.3C241.3,522,242.1,521.9,242.8,521.8L242.8,521.8z M250.3,520.6l-0.5,0.1
					L250.3,520.6z M259.1,518.8c-0.8,0.2-1.6,0.4-2.4,0.5C257.5,519.2,258.3,519,259.1,518.8L259.1,518.8z M266.2,517.1
					c-0.9,0.2-1.8,0.5-2.7,0.7C264.4,517.6,265.3,517.4,266.2,517.1L266.2,517.1z M272.9,515.2c-0.9,0.3-1.9,0.5-2.8,0.8
					C271.1,515.8,272,515.5,272.9,515.2L272.9,515.2z M279.4,513.2l-2.8,0.9L279.4,513.2z M285.7,511.1l-2.7,1L285.7,511.1z
					 M291.8,508.8c-0.8,0.3-1.7,0.7-2.6,1C290.1,509.4,291,509.1,291.8,508.8L291.8,508.8z M297.8,506.4l-2.2,0.9L297.8,506.4z
					 M304.5,503.4l-1.8,0.8L304.5,503.4z M311.2,500.1c-0.7,0.4-1.5,0.7-2.2,1.1C309.8,500.9,310.5,500.5,311.2,500.1L311.2,500.1z
					 M316.7,497.3c-0.8,0.4-1.5,0.8-2.3,1.2C315.2,498.2,316,497.7,316.7,497.3L316.7,497.3z M321.9,494.5l-2.3,1.3L321.9,494.5z
					 M326.9,491.6c-0.7,0.4-1.5,0.9-2.2,1.3C325.4,492.5,326.1,492.1,326.9,491.6L326.9,491.6z M331.6,488.7l-2.1,1.3L331.6,488.7z
					 M320.1,463.5l1.2,0.1L320.1,463.5z M312.2,462.4l1.5,0.2L312.2,462.4z M305.3,461.2l1.1,0.2L305.3,461.2z M297.1,459.4l1.5,0.4
					L297.1,459.4z M290.1,457.6l1,0.3L290.1,457.6z M281.8,455l1.6,0.5L281.8,455z M274.8,452.7l0.9,0.3L274.8,452.7z M266.5,449.5
					l1.6,0.6L266.5,449.5z M259.6,446.7l0.7,0.3L259.6,446.7z M251.2,443l1.6,0.7L251.2,443z M244.4,439.7l0.5,0.2L244.4,439.7z
					 M327,464l1.4,0.1L327,464z M223.2,428l-1.6-0.9L223.2,428z M237.9,436.2l-1.6-0.8L237.9,436.2z M226.9,425.4
					c-1.4-0.2-2.7-0.4-4.1-0.6C224.2,425,225.5,425.2,226.9,425.4z M232.9,426c-1.4-0.1-2.7-0.2-4.1-0.4
					C230.2,425.8,231.6,425.9,232.9,426L232.9,426z M221,424.5c-1.9-0.4-3.8-0.8-5.8-1.2C217.2,423.7,219.1,424.1,221,424.5
					L221,424.5z M248.2,426c-2.5,0.2-5,0.3-7.5,0.3C243.2,426.3,245.7,426.2,248.2,426L248.2,426z M256.8,425.1
					c-2.4,0.3-4.9,0.6-7.3,0.8C251.9,425.7,254.3,425.4,256.8,425.1L256.8,425.1z M265.6,423.6c-2.5,0.5-4.9,1-7.4,1.3
					C260.7,424.5,263.2,424.1,265.6,423.6L265.6,423.6z M273.4,421.7c-2.4,0.7-4.7,1.2-7.1,1.7C268.6,422.9,271,422.3,273.4,421.7
					L273.4,421.7z M281.7,419.2c-2.4,0.8-4.8,1.5-7.2,2.2C277,420.7,279.3,420,281.7,419.2L281.7,419.2z M290.3,416.1
					c-2.4,0.9-4.8,1.8-7.2,2.6C285.6,417.9,288,417,290.3,416.1L290.3,416.1z M298,412.9c-2.3,1-4.5,2-6.8,2.9
					C293.5,414.9,295.8,413.9,298,412.9L298,412.9z M306,409.2c-2.3,1.1-4.6,2.2-7,3.3C301.3,411.4,303.6,410.3,306,409.2L306,409.2
					z M314.2,404.9c-2.3,1.2-4.5,2.4-6.8,3.6C309.6,407.3,312,406.2,314.2,404.9L314.2,404.9z M321.7,400.6
					c-2.2,1.3-4.3,2.5-6.5,3.7C317.4,403.2,319.5,401.9,321.7,400.6L321.7,400.6z M234.7,426.1c1.9,0.1,3.8,0.2,5.8,0.2
					C238.5,426.3,236.6,426.2,234.7,426.1L234.7,426.1z M336.7,391.1c-2.1,1.4-4.2,2.9-6.4,4.2C332.5,393.9,334.6,392.5,336.7,391.1
					L336.7,391.1z M344,386c-2,1.5-4.1,2.9-6.2,4.4C339.9,388.9,342,387.5,344,386L344,386z M329,396.2c-2.2,1.4-4.4,2.8-6.7,4.1
					C324.6,398.9,326.9,397.5,329,396.2L329,396.2z M264.4,341.2c-1.5-1-3.1-1.9-4.6-2.9C261.5,339.2,263,340.2,264.4,341.2
					L264.4,341.2z M257.7,336.9c-2.2-1.5-4.5-3-6.7-4.5C253.3,333.9,255.6,335.4,257.7,336.9L257.7,336.9z M261.3,333.1
					c-0.8,0-1.6,0-2.4-0.1C259.8,333,260.6,333,261.3,333.1L261.3,333.1z M255.4,310.3c-2.4-0.3-4.7-0.6-7-0.9
					C250.8,309.6,253.1,310,255.4,310.3L255.4,310.3z M262.8,311.1c-1.9-0.2-3.8-0.4-5.7-0.6C259.1,310.6,261,310.9,262.8,311.1
					L262.8,311.1z M271.8,311.8c-2.3-0.1-4.6-0.3-6.8-0.5C267.3,311.4,269.5,311.6,271.8,311.8L271.8,311.8z M279.8,312.3
					c-2.5-0.1-5-0.2-7.4-0.4C274.9,312,277.4,312.1,279.8,312.3L279.8,312.3z M287.8,312.5c-2,0-3.9-0.1-5.9-0.1
					C284,312.4,285.9,312.4,287.8,312.5L287.8,312.5z M233.5,306.9c1.9,0.4,3.9,0.7,5.8,1C237.4,307.6,235.5,307.2,233.5,306.9
					L233.5,306.9z M226.2,305.4c2.1,0.4,4.3,0.9,6.4,1.3C230.4,306.3,228.3,305.9,226.2,305.4z M219.6,304c1.6,0.4,3.1,0.7,4.7,1
					C222.7,304.7,221.2,304.4,219.6,304L219.6,304z M241.4,308.2c1.8,0.3,3.6,0.6,5.5,0.9C245,308.8,243.2,308.5,241.4,308.2
					L241.4,308.2z M206.2,300.7l4.8,1.2L206.2,300.7z M200.2,299.1l4.2,1.1L200.2,299.1z M194,297.4c1.6,0.5,3.3,0.9,5,1.4
					C197.2,298.3,195.6,297.8,194,297.4z M189.1,295.9c1.1,0.4,2.3,0.7,3.5,1.1C191.4,296.6,190.2,296.2,189.1,295.9L189.1,295.9z
					 M183.8,294.2l3.8,1.2L183.8,294.2z M179.3,292.7c1.3,0.4,2.6,0.9,3.9,1.3C181.8,293.6,180.5,293.1,179.3,292.7L179.3,292.7z
					 M175.4,291.4l2.6,0.9L175.4,291.4z M171.3,289.9l3.1,1.1L171.3,289.9z M168.5,288.9l2.1,0.8L168.5,288.9z M165.9,287.9l1.7,0.7
					L165.9,287.9z M163.7,287.1l1.7,0.7L163.7,287.1z M162.3,286.5l0.9,0.4L162.3,286.5z M161.4,286.1l0.5,0.2L161.4,286.1z
					 M212,302.2c1.9,0.5,3.9,0.9,5.9,1.4C215.9,303.2,213.9,302.7,212,302.2z M373.1,547.8c-0.6,0.2-1.2,0.3-1.8,0.5
					C371.9,548.1,372.5,548,373.1,547.8L373.1,547.8z M380.9,545.6l-1.2,0.4L380.9,545.6z M388.1,543.1c-0.6,0.2-1.2,0.4-1.8,0.6
					C386.9,543.6,387.5,543.4,388.1,543.1L388.1,543.1z M395.2,540.5l-1,0.4L395.2,540.5z M402.1,537.6l-1.8,0.8L402.1,537.6z
					 M408.6,534.7l-0.8,0.4L408.6,534.7z M415.3,531.4c-0.6,0.3-1.2,0.6-1.8,0.9C414.1,532,414.7,531.7,415.3,531.4L415.3,531.4z
					 M421,528.4l-1,0.5L421,528.4z M427.8,524.7l-1.8,1L427.8,524.7z M365.5,549.7l-1.4,0.3L365.5,549.7z M367,460.8l-0.7,0.8
					L367,460.8z M360.8,461.2c0.9-0.2,1.8-0.5,2.8-0.8C362.6,460.7,361.7,461,360.8,461.2L360.8,461.2z M356.6,462.2
					c0.9-0.2,1.7-0.4,2.6-0.6C358.3,461.8,357.4,462,356.6,462.2L356.6,462.2z M352.3,463c0.8-0.1,1.7-0.3,2.5-0.5
					C354,462.7,353.1,462.9,352.3,463L352.3,463z M347.9,463.6c0.8-0.1,1.6-0.2,2.5-0.3C349.6,463.4,348.8,463.5,347.9,463.6
					L347.9,463.6z M343.5,464c0.8-0.1,1.6-0.1,2.4-0.2C345.1,463.9,344.3,463.9,343.5,464L343.5,464z M339,464.3l2.4-0.1L339,464.3z
					 M340.4,483l-1.6,1.1L340.4,483z M344.9,479.8l-0.9,0.7L344.9,479.8z M349.6,476.3c-0.5,0.3-0.9,0.7-1.4,1
					C348.7,477,349.1,476.6,349.6,476.3L349.6,476.3z M353.2,473.4l-1.4,1.1L353.2,473.4z M356.5,470.7c-0.4,0.4-0.9,0.8-1.3,1.1
					C355.6,471.4,356.1,471,356.5,470.7L356.5,470.7z M359.5,468c-0.4,0.4-0.8,0.7-1.2,1.1C358.7,468.8,359.1,468.4,359.5,468
					L359.5,468z M362.2,465.5l-1.1,1L362.2,465.5z M364.7,463.1l-1,0.9L364.7,463.1z M334.5,464.3c0.8,0,1.5,0,2.3,0h-1.9H334.5z
					 M336,485.9l-1.9,1.2L336,485.9z M368.9,458.7c-1.3,0.5-2.6,1-4,1.4C366.2,459.6,367.6,459.2,368.9,458.7L368.9,458.7z
					 M281.2,331.9c1-0.1,1.9-0.3,2.9-0.5C283.2,331.6,282.2,331.7,281.2,331.9L281.2,331.9z M273.9,332.8c1-0.1,2-0.2,3-0.3
					C276,332.6,275,332.6,273.9,332.8L273.9,332.8z M278,349.1c-1.4-0.7-2.7-1.5-4.1-2.3C275.3,347.6,276.7,348.3,278,349.1
					L278,349.1z M284.9,352.8c-1.4-0.7-2.8-1.4-4.2-2.2C282.1,351.3,283.6,352,284.9,352.8L284.9,352.8z M292,356.3
					c-1.5-0.7-3-1.4-4.5-2.2C289,354.8,290.6,355.5,292,356.3L292,356.3z M300.9,360.2c-2.2-0.9-4.5-1.9-6.7-2.9
					C296.5,358.3,298.7,359.3,300.9,360.2L300.9,360.2z M307.6,362.8c-2.2-0.8-4.4-1.7-6.7-2.6C303.2,361.1,305.5,362,307.6,362.8
					L307.6,362.8z M314.3,365c-1.5-0.5-3-1-4.5-1.5C311.4,364,312.9,364.5,314.3,365L314.3,365z M321.1,367
					c-1.4-0.4-2.8-0.8-4.1-1.2C318.4,366.2,319.7,366.6,321.1,367L321.1,367z M327.8,368.5c-1.3-0.3-2.7-0.6-4-0.9
					C325.2,367.9,326.5,368.2,327.8,368.5L327.8,368.5z M334.6,369.7c-1.4-0.2-2.7-0.4-4.1-0.7C332,369.3,333.3,369.5,334.6,369.7
					L334.6,369.7z M341.7,370.5c-1.5-0.1-3-0.3-4.5-0.5C338.8,370.3,340.2,370.4,341.7,370.5L341.7,370.5z M355.3,370.8
					c0.7,0,1.5,0,2.2-0.1C356.9,370.7,356.1,370.7,355.3,370.8L355.3,370.8z M357.6,375.6c-1.9,1.5-3.9,3.1-5.9,4.6
					C353.8,378.7,355.7,377.1,357.6,375.6L357.6,375.6z M364.6,370c-1.9,1.6-3.9,3.2-5.9,4.8C360.7,373.2,362.7,371.6,364.6,370
					L364.6,370z M350.6,371c-2.2,0-4.4-0.1-6.6-0.2C346.2,370.9,348.4,371,350.6,371z M350.6,381.1c-2,1.6-4.1,3.1-6.2,4.6
					C346.5,384.2,348.6,382.6,350.6,381.1L350.6,381.1z M266.5,333.1c1,0,2.1-0.1,3.1-0.1C268.5,333,267.5,333.1,266.5,333.1
					L266.5,333.1z M271.3,345.2c-1.4-0.8-2.8-1.7-4.2-2.5C268.5,343.5,269.9,344.4,271.3,345.2L271.3,345.2z M297.8,328.2
					c-0.6,0.2-1.3,0.3-1.9,0.5C296.5,328.6,297.1,328.4,297.8,328.2L297.8,328.2z M305.7,325.6l-1.3,0.5L305.7,325.6z M313.2,322.8
					l-2.4,1L313.2,322.8z M319.9,320l-2.6,1.1L319.9,320z M326.4,317l-2.7,1.2L326.4,317z M333.1,313.9l-2.9,1.4L333.1,313.9z
					 M342.5,309.5c-1.6,0.7-3.1,1.5-4.7,2.2C339.4,311,341,310.2,342.5,309.5L342.5,309.5z M350.3,305.9c-1.7,0.8-3.4,1.5-5,2.3
					C346.9,307.5,348.6,306.7,350.3,305.9L350.3,305.9z M358.5,302.2c-2.2,1-4.5,1.9-6.7,2.9C354.1,304.2,356.3,303.2,358.5,302.2
					L358.5,302.2z M352.9,303.8c1.2-0.4,2.5-0.8,3.7-1.2C355.4,303,354.1,303.4,352.9,303.8L352.9,303.8z M343.9,306.3
					c1.3-0.3,2.6-0.6,3.9-1C346.5,305.6,345.2,305.9,343.9,306.3L343.9,306.3z M334.9,308.3c1.3-0.3,2.7-0.5,4-0.8
					C337.6,307.8,336.3,308,334.9,308.3L334.9,308.3z M325.9,309.8c1.3-0.2,2.7-0.4,4-0.6C328.6,309.5,327.3,309.7,325.9,309.8
					L325.9,309.8z M316.9,311c1.3-0.1,2.7-0.3,4-0.5C319.6,310.8,318.2,310.9,316.9,311L316.9,311z M307.9,311.8
					c1.3-0.1,2.6-0.2,4-0.3C310.6,311.7,309.2,311.8,307.9,311.8L307.9,311.8z M298.9,312.3c1.3,0,2.6-0.1,3.9-0.2
					C301.5,312.2,300.2,312.3,298.9,312.3L298.9,312.3z M289.8,312.4c1.3,0,2.6,0,3.9,0c-0.9,0-1.9,0-2.8,0L289.8,312.4z M291,330
					c-0.9,0.2-1.7,0.4-2.6,0.6C289.3,330.4,290.2,330.2,291,330L291,330z M366,299.2c-1.9,0.8-3.9,1.6-5.8,2.4
					c1.5-0.6,3-1.2,4.5-1.8c-0.9,0.4-1.9,0.7-2.8,1C363.2,300.2,364.6,299.7,366,299.2l-0.4,0.2L366,299.2z M219.5,534.6
					c-1.2-0.5-2.5-0.9-3.8-1.4C217,533.7,218.3,534.2,219.5,534.6z M217.9,523.6c1,0,2.1,0,3.1-0.1C220,523.6,219,523.7,217.9,523.6
					L217.9,523.6z M784.4,333.3c-6.4-5.1-38.6-30.3-49.6-39c-3.8-17.3-16.2-40.5-52-61c-38.4-22-96-36.3-171.3-42.4
					c-35.3-7.8-70.6-13.9-101.7-19.2c-33.4-5.7-62.2-10.7-84.1-16.5c-28.5-7.5-33.5-13.6-34.4-15.3L265.8,90l2.2,56
					c1.1,28.7,14,47.5,38.2,55.9c6.4,17.2,10.5,27.7,17.7,38.7c-13.4,6-38.9,14.2-87.5,22.5c-34.9,6-66.4,9.4-74.6,10.2L57,247.8
					l98.4,49.2c0,0,0.3,0.2,1,0.4c18.3,7.4,37.1,13.3,56.3,17.8l-10.3-1.2l41.6,28.6c31.6,21.7,59,34.3,84.8,38.9
					c-31.7,21.3-61.9,32.5-88.4,32.5c-7.5,0-15-0.9-22.2-2.7l-74.8-18.7l65.2,41.2c40.5,25.6,83.4,40.9,119.1,42.8
					c-27.3,17.5-67.3,34.8-111.8,34.8c-9,0-17.9-0.7-26.8-2.1L98,495.1l84.2,37.7c51.3,23,96.6,34.2,138.6,34.2
					c64.7,0,107.6-27.2,142-49c20.8-13.2,38.9-24.7,56.7-26.9c4.6,0.7,9.1,2.3,13.1,4.7l5.8,8.1c15,20.4,38,32.6,61.7,32.6
					c19.8,0,56.9-8.7,83.4-66.2l7.8-10.8c22.9-8.5,33.9-23.6,40.5-37.2c24.6-10.3,53.3-51,57.2-77.3l1.1-7.1L784.4,333.3
					L784.4,333.3z"/>
			</g>
		</g>
		<path id="Fill-4" class="st1" d="M660.5,316.7c-4,2-10.3,4.1-16.7,1.9c-10.6-3.7-26-18.2-45.6-20c0,0,4.8-0.9,11.4-1.6
			c-25-15.2-52.2-19.6-52.2-19.6c65.8-12.2,90,18.1,101,16.9c3.2,11.2,12.4,20.8,29.7,22.8C676.1,320.5,667.8,319.7,660.5,316.7z
			 M749.2,346.3L704,310c-7.8-30-54.5-71-165.9-74.9c4.1,6.8,4.5,14.8,3.7,22.3c-22.2-46.5-115.8-35.9-190.1-61.1
			c12.1,16.7,46.9,57.9,87.4,67.1l0,0c-4,2.8-8.3,5-12.9,6.6l-0.2,0.1h-0.1c-17.6,6.3-39.2,5.2-52.5-2.9
			C315.7,300,260,319.2,161,285.9l0,0c36.7,13.8,114.5,49.6,205,13.3l0,0c34.1-13.3,75.5-20.3,141.7,4.1l0,0
			c-84.9-3.5-138.6,53.2-188.2,38.6c41.9,17.1,94.1-17.3,155.2-5.4h0.1c0.4,0.1,0.8,0.1,1.2,0.2c-0.8,0-1.5,0.1-2.3,0.2
			c-53.6,18.6-104,111.7-172,98.5c60.2,10.9,81.6-13.1,159.2-28.2l0,0c-27.5,24.1-72,116.7-146.6,119.6
			c62.6-2,120.3-57.3,205.4-48.2l0,0c14.6,2,21.8,8.4,21.8,8.4c-16.4-28.8,1.3-54,10.9-60.3c-30,9.7-58.9,40.5-109.2,36.8
			c40.8-12.6,85-95.7,175.4-100.2c-56.6-3.4-142.2,38.8-142.3,38.8l0,0c12.4-11.7,25.4-23.8,39.6-33.8
			c-54.6,5.1-87.5,18.1-87.5,18.1l0,0c81.8-56.9,165.1-55.7,229-42.2c-28.1-12.7-57.5-18.1-57.5-18.1c68.1,3.8,110,22.2,110,22.2
			l0,0C721.4,353.7,734.8,353.3,749.2,346.3L749.2,346.3z"/>
		<path id="Fill-5" class="st2" d="M609.7,297c-6.6,0.7-11.4,1.6-11.4,1.6c19.6,1.8,35,16.2,45.6,20c6.4,2.2,12.7,0.1,16.7-1.9
			c7.2,3.1,15.5,3.9,27.7,0.4c-17.3-1.9-26.5-11.6-29.7-22.8c-11,1.2-35.2-29.1-101-16.9c37.5,1.5,58.3,10.1,72.9,19.1
			C623.5,296.1,616.6,296.3,609.7,297"/>
		<path id="Fill-6" class="st2" d="M428.2,386.5c57.3-25.5,100.7-31.6,111.9-32c-8.6,3.8-16.8,8.4-24.5,13.9
			c-14.3,10-27.2,22.1-39.6,33.8l0,0c50.1-28.7,102.9-59,181.1-57.9l0,0C593.4,330.8,510,329.6,428.2,386.5L428.2,386.5"/>
		<path id="Fill-7" class="st2" d="M443,463.6c73.3-10.5,119.9-86.5,175.4-100.2C528.1,367.9,483.8,450.9,443,463.6"/>
		<g id="Group-11">
			<path id="Fill-8" class="st2" d="M723.9,301.5l-0.5-0.4V301c-4.8-34.6-48.6-84.5-213.7-97.8c-109.5-24.3-215.8-31.1-229.3-57.6
				c0.7,17.8,6.3,39,35.3,46.3c10.1,27,13.5,36.7,26.6,52.6c-36.4,27.4-77.5,54.7-181.2,41.4l0,0c99,33.3,154.7,14.1,212.4-18.8
				c13.3,8.2,34.9,9.2,52.5,2.9l0.3-0.1c4.6-1.6,8.9-3.8,12.9-6.5l0,0c-47.6,1.3-68.4-22.4-87.4-67.1c74.3,25.3,168,14.6,190.1,61.1
				c0.8-7.5,0.4-15.4-3.7-22.3C649.6,239,696.3,280,704,310l45.1,36.3c-14.4,7-27.8,7.4-39.4,2.1l0,0c13.8,12.7,22.4,17.8,30.1,20
				c-12.2,17.2-27.1,24.2-36.7,25.9c-12.3-5.9-35-21.1-39.3-36.6c-28.3,19.5-70.1,31.8-91.2,76.3c15.3,6.3,1.8,43.8,42.6,61.2
				c-9.1,13.7-37.1,21.8-67,1.5c27,36.9,88.8,45.8,124.2-32.7c-31.7,32-69.6-0.1-70.1-32c11-23.7,32.6-32.6,58-42.6
				c16.5,13.1,50.2,37.2,22.9,59.7c22.8-7.3,32.6-21.4,39.3-36.9c19.6-3.5,50.3-44.4,54-69.1C769.4,337.3,728.6,305.2,723.9,301.5"
				/>
			<path id="Fill-10" class="st2" d="M314.2,526.9c-0.9,0-1.7,0.1-2.6,0.1c-2.2,0-4.4,0-6.5-0.1l0,0
				c83.5-23.4,108.2-100.7,155.8-119.6l0,0c-77.7,15.2-99.1,39.1-159.3,28.2l0,0c60.8-3.1,102.8-93.6,172-98.5
				c0.8,0,1.5-0.1,2.3-0.2c-0.4-0.1-0.8-0.1-1.2-0.2h-0.1c-61.1-11.9-113.4,22.5-155.2,5.4l0,0c33.2,3.6,88.2-56,188.2-38.6l0,0
				c-66.2-24.4-107.5-17.4-141.7-4.1c-39,15.2-68.6,38.7-114.9,33.1c38,26.1,76.2,43,113.6,37.6c-40.7,34-95.9,66.6-149.4,53.3
				c50,31.5,110.8,51.4,153.6,35.5c-20.1,23.1-93.8,76.5-181.7,62.8c205,92,260.5-36,332.5-42.9l0,0
				C434.4,469.5,376.8,524.8,314.2,526.9"/>
		</g>
	</g>
</g>
</svg>
