<?xml version="1.0" encoding="utf-8"?>
<!-- Generator: Adobe Illustrator 25.0.1, SVG Export Plug-In . SVG Version: 6.00 Build 0)  -->
<svg version="1.0" id="katman_1" xmlns="http://www.w3.org/2000/svg" xmlns:xlink="http://www.w3.org/1999/xlink" x="0px" y="0px"
	 viewBox="0 0 560 400" style="enable-background:new 0 0 560 400;" xml:space="preserve">
<style type="text/css">
	.st0{fill:#FFFFFF;}
	.st1{fill:#C4B681;}
	.st2{fill:#004E38;}
</style>
<g transform="matrix(2.02085 0 0 -2.02085 28.1931 779.14)">
	<path class="st0" d="M211.7,279.9c-0.1,7.3-2,14.7-5.6,21.2c-3.5,6.3-8.4,11.8-14.2,15.9l-18,12.5l23.6,29.3l-14.9,2.7
		c-9.9,1.4-21.4,2.2-32.3,2.2c-14,0-34.2-1.3-50.6-7.4c0,0-17.8-5.1-37.8-19.3c-11-7.8-14.6-13-18.7-20.6
		c-3.9-7.2-5.8-14.8-5.7-22.7c0.1-7.3,2-14.7,5.6-21.2c3.5-6.3,8.4-11.8,14.2-15.9l9.6-6.7l-26.2-34.4l11.6-2.1
		c0.9-0.2,22.8-4,48.1-4c17.5,0,32.3,1.9,44.1,5.5c1.4,0.4,2.7,0.9,4,1.3l-0.4-0.3c0,0,38.5,11.8,57.8,41.1
		C210.4,264.1,211.8,272,211.7,279.9"/>
	<g transform="matrix(.8 0 0 -.8 68.679 336.07)">
		<path class="st1" d="M145,32.8c-0.2,18.5-19.9,29-43.4,26.8c2.3,1.1,14.7,7.3,25.6,17.3C142.6,73.6,152.6,54.7,145,32.8z
			 M12.7,46.3C-2.8,49.5-12.7,68.5-5.2,90.4c0.2-18.5,19.9-29,43.4-26.8C36,62.5,23.5,56.3,12.7,46.3z"/>
		<path class="st2" d="M103.4-25.5c-41.8-0.2-90,8.7-91.7,42.2c-1.3,24.6,33.7,44,41.6,49.1c11.1,7.2,48,26.4,44.4,45
			c-3.2,16.5-26.8,19.8-26.8,19.8s24.3-13.1,13.2-32c-0.3,0.5-2.5,25.2-60.3,16.9l2.5-30.4l-45.1,59.3c0,0,124.9,22.2,144.8-28.2
			C138,85.9,94.5,63.4,85.5,57.4c-8.8-5.8-45.5-24.9-43.6-43c3.4-33.3,99.3-37.3,99.3-37.3C130.6-24.4,117.3-25.4,103.4-25.5
			L103.4-25.5z M141.6-19c-35.9,4.9-55,10.4-55,10.4C80.7-6.7,22.8,8.8,75,44.5c-1.1-1.5-11.4-13.3-1.7-23.8
			c0,0,10.6-12.7,47.1-12.7L141.6-19L141.6-19z M-3.1,6.1c-39.3,28.6-30.5,68.9-6,85.8C-22.3,57.8-6.2,41,5.6,38.8
			C-7.7,22.7-3.7,8.3-3.1,6.1z M148.9,31.3c13.2,34.1-2.9,50.9-14.7,53.2c13.3,16.1,9.3,30.5,8.7,32.7
			C182.2,88.5,173.4,48.3,148.9,31.3z"/>
	</g>
</g>
</svg>
