<?xml version="1.0" encoding="utf-8"?>
<!-- Generator: Adobe Illustrator 25.0.1, SVG Export Plug-In . SVG Version: 6.00 Build 0)  -->
<svg version="1.0" id="katman_1" xmlns="http://www.w3.org/2000/svg" xmlns:xlink="http://www.w3.org/1999/xlink" x="0px" y="0px"
	 viewBox="0 0 560 400" style="enable-background:new 0 0 560 400;" xml:space="preserve">
<style type="text/css">
	.st0{fill:#862633;}
</style>
<path class="st0" d="M288.8,249.8h-17.6v-24.9h17.6V249.8z M234,197.2h-16.8v-47.1H234V197.2z M380,128.5V69.9h-37.2v11.8L331,69.9
	h-70l-27,32.9v19.7h-26.9L180,149.6v48.2l27.1,27.1H234v25.5l27.1,27.1h27.6v24.9h-71.6V280H180v50.1h37.2v-11.8l11.8,11.8h69.8
	L326,303v-25.5h26.9l27.1-27.1v-29.8h-37.2v29.3H326v-25.5l-27.1-27.1h-27.6v-47.1h17.6v22.3H326v-49.9h-37.2v11.8L277,122.5h-5.8
	V97.6h71.6v30.9H380z"/>
</svg>
