<svg xmlns="http://www.w3.org/2000/svg" id="Layer_2" data-name="Layer 2" viewBox="0 0 375.32 317.73"><defs><style>.cls-1{fill:#fff}</style></defs><g id="Layer_1-2" data-name="Layer 1"><path id="Fill" d="M324.65 148.77c.49-4.29.59-4.96.83-6.83-7.73-17.46-17.21-32.91-30.5-47.84-1.78-39.21-35.84-58.88-35.84-58.88s2.37 11.39-2.42 16.83C238.47 11.76 198.57 0 198.57 0l1.42 9.79c2.39 16.51-11.83 31.73-15.4 44.88-74.09-3.8-132.93 28.69-132.92 28.69l8.72 9.71C23.95 115.12 0 142.86 0 142.86s34.17 8.38 60.82 37c58.14 62.41 49.21 150.74 227.36 136.29-24.87-18.34-74.17-55.45-52.29-79.57 19.49 3.01 37.07 23.3 55.34 23.3 16.49 0 36.75-15.16 36.75-27.5 0-4.72-1.46-4.72 1.1-3.02 11.64-1.56 23.54-6.94 29.19-17.24 7.84-6.72 17.05-13.93 17.05-24.08 0-14.57-16.28-20.34-50.67-39.28Z" style="fill:#acc9e7"/><path id="White" d="M290.11 160.29c15.37 7.28 37.52 15.8 48.62 20.46-1.52 1.42-2.72 3.2-3.45 5.23 8.08 1.67 13.48 9.31 12.36 17.49 0 0-3.86 7.86-16.45 10.21 0 0-11-4.1-33.11-25.59-27.41-26.65-77.67-18.73-76.45-1.66 1.37 19.24 55.38 25.32 90.55 45.8-.37.92-8.49 12.77-19.76 12.77-12.43 0-34.35-28.55-67.95-28.55-27.95 0-50.66 22.9-55.13 48.67a68.6 68.6 0 0 1-3.66-45.84l-11.95 4.4a62.123 62.123 0 0 1 30.14-56.53l-8.2-6.24c9.78-6.61 20.45-11.19 31.49-13.92 12.46-3.08 25.36-3.86 37.96-2.71 15.36 3.97 30.51 9.52 44.99 16Zm-39.32-41.68c-.48-2.34-1.37-4.65-2.83-6.56a48.944 48.944 0 0 1 40.08 30.75c.38.54.86.99 1.4 1.34 2.23-30.8-30.95-43.59-30.95-43.59l.67 4.73c-16.35-5.23-27.1 2.98-27.1 2.98l5.94 1.92c-6.7 2.76-10.26 7.68-11.91 10.7 7.82-2.65 16.33-3.51 24.69-2.25Z" class="cls-1"/><path id="Blue" d="M221.2 71.2c1.24 3.72.07 7.83-2.95 10.34a8.4 8.4 0 0 0-6.58-6.82 6.699 6.699 0 0 1-4.58 4.5c1.31-21.13 7.66-28.11 12.66-39.82 12.11 11.43 17.74 29.66 17.37 45.26a22.469 22.469 0 0 0-15.92-13.45Zm-6.34 114.69c0-7.94 5.34-12.47 12.26-15-17.73.59-18.56 13.39-18.56 16.51 0 2.22.62 20.8 25.34 20.8 1.32 0 2.87-.04 4.5-.09-14.23-5.07-23.55-11.2-23.55-22.22Zm13.15 52.47c-8.42 1.15-14.98 8.62-16.66 16.69-3.99 19.28 13.89 41.73 32.23 57.82a315.717 315.717 0 0 0 29.39-1.04c-51.45-37.93-50.76-61.93-44.96-73.48ZM80.5 195.53c33.86 47.94 49.13 106.07 138.81 115.91-10.9-11.16-22.19-27.31-22.19-46.29 1.22-18.78 15.87-32.51 32.87-34.46 23.61-.9 43.47 23.65 61.23 23.65 14.31 0 31.21-13.65 31.21-21.96 0-2.81-.2-5.44-6.78-9.01 2.09-1.87 4.16-3.76 6.22-5.66 5.5 3.85 8.53 5.88 8.53 5.88s17.22-2.31 23.43-14.97c7.69-6.64 15.93-12.91 15.93-20.57 0-3.33-1.48-8.57-11.97-14.67-1.65-1.2 0 0-39.08-21.54.24-2.11.78-6.97 1.06-9.07a173.43 173.43 0 0 0-30.28-46.47 64.542 64.542 0 0 0-25.26-50.18c-.27 6.5-4.08 12.25-9.78 15.08a90.043 90.043 0 0 0-32.21-42.72c-5.34-3.84-10.97-7-16.78-9.49 3.06 21.09-16.18 38.76-16.18 51.51A254.408 254.408 0 0 0 60.71 85.13l8.32 9.27a262.01 262.01 0 0 0-59.06 46.06c20.3 7.06 35.66 17.11 48.15 28.84 22.13-17.35 47.55-31.13 74.38-39.17-33.07 21.61-46.02 45.91-52.01 65.38Zm267.13 7.95s-3.86 7.86-16.45 10.21c0 0-11-4.1-33.11-25.59-27.41-26.65-77.67-18.73-76.45-1.66 1.37 19.24 55.38 25.32 90.55 45.8-.37.92-8.49 12.77-19.76 12.77-12.43 0-34.35-28.55-67.95-28.55-27.95 0-50.66 22.9-55.13 48.67-25.93-12.25-42.35-38.5-42.04-67.18l-9.09 1.89c4.38-21.4 16.28-40.43 33.24-53.66l-7.77-5.06c4.48-5.45 25.64-21.84 57.3-26.45-42.33-9.53-92.42-2.87-137.55 23.22a165.106 165.106 0 0 1 42.38-34.83l-5.8-5.61a194.57 194.57 0 0 1 101.06-22.64c0-22.73 15.19-34.58 15.19-47.9a79.531 79.531 0 0 1 32.71 56.51l9.64-4.95c.07.05.13.1.2.16a173.01 173.01 0 0 1 50.76 65.6l-1.66 13.04 35.88 20.48c-1.91.6-3.64 1.64-5.08 2.98-1.52 1.42-2.72 3.2-3.45 5.23 8.08 1.67 13.48 9.31 12.36 17.49Zm-52.29-59.65a5.034 5.034 0 0 1-3.88 1.08c-.73-.1-1.42-.37-2.02-.76-.54-.35-1.02-.8-1.4-1.34a48.962 48.962 0 0 0-40.08-30.75c1.46 1.91 2.35 4.22 2.83 6.56-8.37-1.26-16.88-.4-24.69 2.25a52.78 52.78 0 0 0-7.3 3.1c10.05.14 19.95 1.72 29.4 4.67-5.9 1.61-11.41 4.48-16.4 8 7.11-.01 16.65 2.73 21.86 7.06-2.87-.03-5.75.16-8.59.58.01 0 .03 0 .04.01 15.36 3.97 30.51 9.52 44.99 16-1.35-2.27-3-4.32-4.88-6.12a5.065 5.065 0 0 0 2.9-2.7c1.56.6 3.38.5 4.91-.4 2.5-1.48 3.49-4.6 2.3-7.24Z" style="fill:#0c4f93"/><path id="Details" d="M315.65 213.3c-1.61 1.41-3.22 2.81-4.81 4.22.21-2.47.41-4.94.6-7.41 1.35 1.06 2.75 2.13 4.22 3.19Zm-19.49-3.34c.3-3.89.67-8.62.96-12.32 2.32 2.11 4.71 4.32 7.27 6.58-2.34 2.43-5.13 4.44-8.23 5.74Zm7.81 3c-.2 1.77-.38 3.54-.58 5.31-1.94-.67-4.07-1.37-6.42-2.11 2.46-.75 4.81-1.84 7-3.2Zm-25.03-9.51c.26-6.23.6-13.38.85-18.99 4.39 2.36 8.27 5.27 12.11 8.55l-12.96 10.45Zm12.46-3.36c-.49 4.5-1.1 10.04-1.5 13.65-3.58-1.4-7.21-2.75-10.82-4.06 3.35-2.62 8.21-6.41 12.32-9.59Zm-31.52-4.61c.21-5.59.45-11.19.66-16.76 5.7.6 10.52 1.86 14.79 3.61-2.76 2.36-10.44 8.9-15.44 13.15Zm14.82-6.14c-.27 5.94-.67 14.89-.84 18.46-4.97-1.77-9.84-3.47-14.42-5.1 4.31-3.84 10.24-8.99 15.26-13.36Zm-31.07-4.61-.69-5.67c2.76-.47 5.91-.77 9.48-.77 2.18 0 4.23.08 6.19.24-3.6 1.5-10.4 4.3-14.98 6.2Zm10.91 2c-.02 4.72-.04 9.44-.11 14.16-14.64-5.36-25.34-10.13-25.34-14.93 0-1.24 2.35-3.4 6.98-5.12l2.33 13.35 16.14-7.46Zm21.25-38.63c-2.2-.87-4.45-1.61-6.73-2.23-1.22-2.74-1.6-5.79-1.11-8.75 3.82 2.14 7.52 4.51 11.06 7.15-1 .61-1.8 1.51-2.31 2.58-.22.46-.37.95-.46 1.45-.15-.06-.3-.14-.45-.2Z" class="cls-1"/></g></svg>