<?xml version="1.0" encoding="utf-8"?>
<!-- Generator: Adobe Illustrator 25.0.1, SVG Export Plug-In . SVG Version: 6.00 Build 0)  -->
<svg version="1.0" id="katman_1" xmlns="http://www.w3.org/2000/svg" xmlns:xlink="http://www.w3.org/1999/xlink" x="0px" y="0px"
	 viewBox="0 0 560 400" style="enable-background:new 0 0 560 400;" xml:space="preserve">
<style type="text/css">
	.st0{fill:#8C1515;}
	.st1{fill:#FFFFFF;}
</style>
<g transform="matrix(1.24999 0 0 1.24999 178.357 44.8362)">
	<path class="st0" d="M35.9,1.1L1.3,35v90.9l30,30.7h13.8c-0.3,0.9-0.8,2.3,0.2,3.7c1,1.5,2.8,1.5,3.5,1.5c0.8,0,1.9-0.1,3.7-0.3h0
		c0,0,0.7,0.6-1.5,1.4c-1.8,0.6-3.4,1.7-3.9,3.5c0,0.1,0,0.3-0.1,0.4H1.3l0,46.5l34.6,34h90.9l34.6-33.9v-87.1l-30-30.6h-25.5
		c0,0,0,0,0,0c-1.1-0.7-2.3-1.4-3.3-2.1l-0.4-0.2l-0.1,0c-0.6-0.4-1.2-0.8-1.8-1.4c-0.6-0.5-1-0.9-1.4-1.3l-0.1-0.1
		c-0.7-0.7-1.3-1.4-1.7-2c4,1.1,8.3,1.4,10.4,1.5h0.2c0.1,0,0.3,0,0.4,0l0.2,0c0.5,0,0.9,0.1,1.1,0.2c0.3,0.1,0.5,0.2,0.7,0.3
		l1.1,0.4c0.3,0.1,0.5,0.1,0.8,0.1c1.6,0,3-0.9,3.7-2.4c0.2-0.5,0.6-1.5,0.3-2.8l45.4,0V35L126.8,1.1L35.9,1.1L35.9,1.1z"/>
	<path class="st1" d="M157.2,36.8L125.1,5.3H37.5L5.4,36.8v87.4l27.6,28.2l17.8,0c-2,1.8-2.6,3.7-2.9,4.6c-0.7,2-1.4,2.6,4.8,1.7
		c2-0.3,5.6-1.6,7.3-2.7c1.7-1.1,4.9-0.2,4.7,2.2c-1.5,3.8-5.5,6.1-9.3,6.6c-8.7,1.1-4.9,4.3-4.9,4.3c1,0.7,1.6,1.3,2.1,1.9h-4.2v0
		h-43l0,40.5l32.1,31.5h87.6l32.1-31.5v-83.5l-27.6-28.1h-22.3c-1.8-1.2-4.2-2.5-6.4-3.9c0,0,0,0,0,0c-0.8-0.5-1.7-1.1-2.4-1.8
		c-0.7-0.5-1.2-1.1-1.7-1.6c-1.9-2-3.4-4.1-3.8-5.1c-0.7-1.8-0.6-4,1.1-3.1c4.1,2.4,10.9,2.8,13.4,2.9c0.3,0,2.3,0.2,2.8,0.4
		c0.5,0.2,1.3,0.6,1.3,0.6c1,0.4,2.9-1,0.7-3.6c-0.6-0.9-1.4-1.9-2.4-3h47.4L157.2,36.8"/>
	<path class="st0" d="M39.2,9.5l-29.6,29v83.8l25.2,25.7h23.7c4-1.8,4.9-1.6,6-3.9c0.2-0.4,0.3-1.4,0.4-2.4c0.1-0.3,0.6-3.3-0.9-2.6
		c-2.5,1.3-7.6-2.1-11.5-0.1c-3.8,2-1-2.6-0.5-3.4c0,0,2-2.7,5.1-4.5c0.1-0.1,0.2-0.1,0.3-0.2c0.3-0.2,0.6-0.3,0.9-0.5
		c2.3-1.1,9-5.6,10.2-6.9c0.7-0.8,2-2.7,2-3.7c0.2-0.9,0.4-2.3-0.5-2.8c-1.3-0.8-2.3,0.8-4.3,1.7c-2,0.9-3.5,1.3-5.3,1.3
		c-1.7,0.1-3.4-0.6-4.4-0.4c-1,0.2-1.6-0.6,0.3-2.5c0.9-0.9,1.2-1.2,1.6-1.5c4.5-2.9,8.5-2.9,10.7-8c0,0,1.7-4.6-1.6-2.6
		c-1.8,1.1-2.9,2.6-8.1,2.6c-5.3,0-7.3,2.5-8.2,3.6c0,0-3.6,5-2.7-2c0.9-7,2.3-10.6,5.6-13.3c2.9-2.3,9.9-5.5,12.5-9
		c1.3-1.3,4.6-5.1,2.7-8.2c-0.8-1.3-2.8,2.1-4.8,2.6c-2.3,0.6-5.3,1.4-7.5,0.9c-2.8-0.6-4.6,0.5-5.6,1s-3-1-0.6-3.8
		c3.2-3.7,11-8.5,16.2-11.3c0.7-0.3,2.5-1.1,4.1-2.1c0,0,0.1,0,0.1,0c0.4-0.2,1-0.5,1.3-1c1.1-1,1.9-2,1.7-3.1
		c-0.2-1-0.7-1.3-2.3-1.5c-1.2-0.1-3.3,1.3-5,1.2c-2.6-0.2-6.5,0.4-5.2-1.5c1.2-1.7,3.1-2.8,3.7-3.1c1.1-0.5,2.5-1.1,4.6-2.1
		c3.3-1.5,2.9-5.3,1.6-5.4c-2-0.2-7.4,1.5-3.6-2.8c0,0,1.8-1.8,3.6-3c1.4-0.8,2.6-1.2,4.1-1.7c0.9-0.3,3.2-2.4-2.3-2.6
		c0,0-3.1,0.1-2.5-1.3c0.5-0.9,3.2-2.7,3.2-2.7s2.2-1.5,3.1-2.4c0.9-0.8,1.5-1.5,1.4-2.2c0-0.8-2.2-1.9-3.1-3.1
		c-0.7-0.8-0.1-1.1,0.3-1.2c0.2,0,0.4-0.1,0.7-0.1c2.2,0,2.9-2.2,4.2-8.1c0.4-1.7,0.4-2.1,1-2.1c0.1,0,0.1,0,0.1,0
		c0,0,0.6,3,1.4,6.3c0.7,1.8,1.4,2.6,2.8,2.6c0.3,0,0.5,0,0.7,0.1c0.4,0.1,0.9,0.4,0.3,1.2c-0.5,0.7-2,1.7-2.1,2.3
		c-0.4,1.8,1.3,2.5,3.1,2.6c2.5,0.2,1.5,1.7-1.2,3.7c-2.6,1.9,4.1,6.1,4.1,6.1c3.8,2.9,1.1,3.7,0.3,4.1c-0.8,0.4-2.9,1.7-0.8,2.5
		c2.2,0.8,5.1,3.8,5.1,3.8c3.8,4.4-1.6,2.6-3.6,2.8c-1.3,0.1-1.8,3.9,1.6,5.4c5.1,2.3,6.2,2.7,8,4c3.4,2.5,1.6,4.6-2.6,3.9
		c0,0-2.7-0.7-4.6-0.3c-1.2,0.2-2,0.5-2.5,0.8c-0.3,0.4-1,2.2,4.9,4c2.8,0.9,6.2,3,9.3,5.4l47.8,0l0-38.8L123.4,9.5L39.2,9.5
		L39.2,9.5z M111.4,104c1.4,2.3,2.2,5.3,2.8,9.6c0,2.6-3.5,1.4-4.6,0.7c-0.8-0.5-1.8-1-3.2-1.4c-2.5-0.6-8.6-3.3-10.2-3.8
		c-1.7-0.6-2.9,0.6-3.1,1.1h0c-0.4,0.8,0.5,2.4,0.5,2.4c2.4,5.4,6.7,5.1,11.5,8.5c6.6,4.7,3.1,5.7,1.7,5c-1.3-0.7-3.6-0.3-3.6-0.3
		c-5.3,1.5-6.9-0.8-10-1.6c-3.1-0.8-0.6,3,0.6,4.3c1.2,1.4,7.9,5.9,10.2,6.9c5.1,2.4,7.7,6.2,9.3,11.1c1.5,4.6-0.1,3.6-1.3,3
		c-1.2-0.6-1.6-1.8-4.6-1.7c-3,0.1-4.7-0.2-6.9-1.8c-0.6-0.4-1-0.9-1.4-1.4c0,0,0,0-0.1,0c-2.1-1.6-1.7,3.7-1.2,4.5
		c1.5,3,2.5,1.8,11.1,6.4c4.1,2.2,5,5.1,5.5,6.3c0.7,2,1.4,2.6-4.8,1.7c-2-0.3-5.6-1.5-7.3-2.7c-1.6-1.1-4.9-0.2-4.6,2.2
		c1.5,3.8,5.5,6.1,9.3,6.6c3.3,0.4,4.8,1.1,5.4,1.9c1.8,2.1-1.5,5.1-1.5,5.1c-1.7,1.9,0.1,4.2,1.4,4.9c2,1,5.9,3.4,7.2,6.7
		c6.8,17.4,0.2,12.4-3,10.4c-3.2-2-9.3-7.1-14.9-6.7c-5.6,0.4-7.4,0.7-10.8-1.9c-3.3-2.6-3,1.6-3,1.6v21c0.2,4.7,1.1,9.2,4.8,13
		c3.1,3.1,5.4,2.6,9.7,7.8c2,2.4,8.5,5,12.8,5.1l8.3,0l29.6-29.1v-80L127.9,104L111.4,104z M9.6,175.1l0,34.5l29.6,29.1h9.5
		c9-0.4,12.3-7.4,15-11.7c2-3.2,5.7-6,8-8.3c2.4-2.5,2.9-8.1,2.9-14.2v-12.7l0,0.1v-3h0v-2h0v-0.5v-5.5c0-1.3-1.5-1.4-4.7,2.1
		c-3.2,3.5-8.7,3.2-11.8,3.5c-3.1,0.3-12.2,5-14.7,8.4c-1.6,2.1-3.9,0.4-2.9-3.8h0c0.4-1.9,1.2-4.4,2.5-7.7c1.8-4.6,8.5-7.3,8.5-7.3
		s0.7-0.3,1.3-0.9H9.6z"/>
</g>
</svg>
