<?xml version="1.0" encoding="utf-8"?>
<!-- Generator: Adobe Illustrator 25.0.1, SVG Export Plug-In . SVG Version: 6.00 Build 0)  -->
<svg version="1.0" id="katman_1" xmlns="http://www.w3.org/2000/svg" xmlns:xlink="http://www.w3.org/1999/xlink" x="0px" y="0px"
	 viewBox="0 0 560 400" style="enable-background:new 0 0 560 400;" xml:space="preserve">
<style type="text/css">
	.st0{fill-rule:evenodd;clip-rule:evenodd;fill:#00264F;}
</style>
<g transform="matrix(2.61566 0 0 2.61566 1892.93 -149.055)">
	<path class="st0" d="M-604.3,135.1h-8l4-11.8h0.1L-604.3,135.1z M-601.7,142.4l2.4,6.4h10.3l-13.9-37h-10.5l-14.2,37h10.2l2.6-6.4
		H-601.7z"/>
	<path class="st0" d="M-553.2,149.3c-8.9,16.5-27,29.9-55,29.9c-26.7,0-41.1-13.4-55.1-29.9c-6.1-7.3-11.1-12.8-16.8-17.6
		c5.9-3.4,13.1-10.7,17.4-15.4c15.4-16.7,29.3-28.7,54.5-28.7c23.8,0,44.7,8.6,54.9,30.5H-570c-7-9.9-21.3-16.7-37.4-16.7
		c-23.1,0-41.8,13.9-41.8,31.1c0,17.2,18.7,31.1,41.8,31.1c14.7,0,28-6,35.4-14.5L-553.2,149.3z"/>
</g>
</svg>
